<svg width="16" height="16" viewBox="0 0 16 16" fill="none" xmlns="http://www.w3.org/2000/svg">
<path d="M13.8311 4.46338C14.281 4.9278 14.6378 5.47914 14.8813 6.08593C15.1248 6.69272 15.2501 7.34307 15.2501 7.99986C15.2501 8.65664 15.1248 9.307 14.8813 9.91379C14.6378 10.5206 14.281 11.0719 13.8311 11.5363" stroke="#E4E5E7" stroke-linecap="round" stroke-linejoin="round"/>
<path d="M4.48517 10.7785H1.25514C1.11236 10.7785 0.975431 10.72 0.874473 10.6158C0.773514 10.5115 0.716797 10.3702 0.716797 10.2228V5.77718C0.716797 5.6298 0.773514 5.48845 0.874473 5.38424C0.975431 5.28002 1.11236 5.22147 1.25514 5.22147H4.48517L9.33021 1.33154V14.6684L4.48517 10.7785Z" stroke="#E4E5E7" stroke-linecap="round" stroke-linejoin="round"/>
<path d="M4.48535 5.22168V10.7787" stroke="#E4E5E7" stroke-linecap="round" stroke-linejoin="round"/>
<path d="M11.9268 6.42822C12.1267 6.63463 12.2853 6.87967 12.3935 7.14936C12.5018 7.41904 12.5575 7.70809 12.5575 7.99999C12.5575 8.2919 12.5018 8.58094 12.3935 8.85063C12.2853 9.12031 12.1267 9.36535 11.9268 9.57176" stroke="#E4E5E7" stroke-linecap="round" stroke-linejoin="round"/>
</svg>
