<svg width="24" height="23" viewBox="0 0 24 23" fill="none" xmlns="http://www.w3.org/2000/svg">
<path d="M1.9307 21.9561C1.65382 21.6792 1.49827 21.3037 1.49827 20.9121C1.49827 20.5205 1.65382 20.145 1.9307 19.8681L20.7224 1.0764C20.9993 0.799522 21.3748 0.64397 21.7664 0.643971C22.158 0.643971 22.5335 0.799522 22.8104 1.0764C23.0873 1.35329 23.2428 1.72882 23.2428 2.12039C23.2428 2.51196 23.0873 2.88749 22.8104 3.16437L4.01867 21.9561C3.74179 22.233 3.36626 22.3885 2.97469 22.3885C2.58312 22.3885 2.20759 22.233 1.9307 21.9561Z" fill="white"/>
<path d="M1.9307 1.04391C1.65382 1.32079 1.49827 1.69632 1.49827 2.08789C1.49827 2.47946 1.65382 2.85499 1.9307 3.13188L20.7224 21.9236C20.9993 22.2005 21.3748 22.356 21.7664 22.356C22.158 22.356 22.5335 22.2005 22.8104 21.9236C23.0873 21.6467 23.2428 21.2712 23.2428 20.8796C23.2428 20.488 23.0873 20.1125 22.8104 19.8356L4.01867 1.04391C3.74179 0.767024 3.36626 0.611473 2.97469 0.611473C2.58312 0.611473 2.20759 0.767024 1.9307 1.04391Z" fill="white"/>
</svg>
