<svg width="11" height="11" viewBox="0 0 11 11" fill="none" xmlns="http://www.w3.org/2000/svg">
<path d="M0.062314 0.376965C0.0160341 0.490439 -0.00514129 0.617844 0.00106045 0.745506C0.00726219 0.873168 0.0406065 0.996265 0.097516 1.10159L5.04777 10.2207C5.09839 10.3139 5.16597 10.3901 5.24471 10.4426C5.32345 10.4952 5.41101 10.5227 5.4999 10.5227C5.58878 10.5227 5.67635 10.4952 5.75509 10.4426C5.83383 10.3901 5.9014 10.3139 5.95202 10.2207L10.9023 1.10159C10.9594 0.996347 10.9928 0.873193 10.999 0.745458C11.0051 0.617724 10.9838 0.490277 10.9372 0.376916C10.8906 0.263556 10.8206 0.168602 10.7348 0.102337C10.6489 0.0360718 10.5505 0.00101974 10.4502 0.000976548L0.54964 0.000976115C0.449239 0.00095501 0.350749 0.0359817 0.264845 0.10226C0.178941 0.168538 0.1089 0.263538 0.062314 0.376965Z" fill="#757D8C"/>
</svg>
