<svg width="77" height="75" viewBox="0 0 77 75" fill="none" xmlns="http://www.w3.org/2000/svg">
<path d="M14.5677 0.418091C6.91548 0.418091 0.753906 6.48486 0.753906 14.0194V61.3061C0.753906 68.8406 6.91548 74.9073 14.5677 74.9073H40.5972V45.7867H32.7765V35.3023H40.5972V26.345C40.5972 19.3076 45.218 12.8462 55.8626 12.8462C60.1724 12.8462 63.3594 13.2535 63.3594 13.2535L63.1087 23.0442C63.1087 23.0442 59.8584 23.014 56.3117 23.014C52.4732 23.014 51.8576 24.7554 51.8576 27.6463V35.3024H63.4137L62.9101 45.7868H51.8576V74.9074H62.5933C70.2455 74.9074 76.4071 68.8406 76.4071 61.3061V14.0194C76.4071 6.48494 70.2455 0.418165 62.5933 0.418165L14.5677 0.418091Z" fill="#4267B2"/>
</svg>
