<svg width="18" height="19" viewBox="0 0 18 19" fill="none" xmlns="http://www.w3.org/2000/svg">
<path d="M8.10156 18.7037C8.38126 18.8531 8.73233 18.8521 9.01204 18.7028C16.6346 14.608 17.1759 6.60776 17.1693 4.33299C17.1685 4.15016 17.1145 3.97151 17.0138 3.81892C16.9131 3.66633 16.7701 3.54642 16.6022 3.47389L8.94354 0.08123C8.82165 0.0275046 8.68989 -0.000163111 8.55669 7.2337e-07C8.4235 0.000164557 8.29181 0.0281562 8.17006 0.0821813L0.564644 3.47484C0.399289 3.54742 0.258284 3.666 0.158427 3.81646C0.0585697 3.96692 0.00407028 4.14291 0.00142152 4.32348C-0.0309257 6.58683 0.42479 14.6042 8.10156 18.7037ZM5.42434 7.79986L7.60588 9.98139L11.6902 5.89708L13.0355 7.24234L7.60588 12.6719L4.07908 9.14512L5.42434 7.79986Z" fill="#95A0B2"/>
</svg>
