<svg width="9" height="18" viewBox="0 0 9 18" fill="none" xmlns="http://www.w3.org/2000/svg">
<path d="M6.84277 15.2562C6.83629 15.2584 6.23938 15.4616 5.72127 15.4616C5.43523 15.4616 5.31973 15.4008 5.28303 15.3743C5.10169 15.2451 4.76492 15.0033 5.34132 13.8282L6.42072 11.6261C7.06081 10.3185 7.15579 9.05399 6.68517 8.06447C6.30091 7.25497 5.56368 6.69947 4.61272 6.50068C4.27244 6.42942 3.92599 6.39353 3.57866 6.39355C1.58284 6.39355 0.238988 7.58628 0.182859 7.63708C0.0891457 7.72158 0.0269833 7.83673 0.00697172 7.96288C-0.0130398 8.08904 0.0103385 8.21839 0.0731208 8.32887C0.135903 8.43936 0.234201 8.52415 0.351253 8.56878C0.468305 8.6134 0.596863 8.6151 0.715004 8.57359C0.720401 8.57138 1.31839 8.36707 1.8365 8.36707C2.12039 8.36707 2.2348 8.42781 2.27042 8.45321C2.45284 8.58353 2.79069 8.8287 2.21537 10.0015L1.13597 12.2048C0.494806 13.5135 0.400898 14.778 0.871518 15.7664C1.25578 16.5759 1.99194 17.1314 2.94505 17.3302C3.28398 17.3998 3.63155 17.4373 3.9748 17.4373C5.97169 17.4373 7.31663 16.2446 7.37275 16.1938C7.46655 16.1095 7.52887 15.9945 7.54911 15.8684C7.56935 15.7424 7.54625 15.6131 7.48374 15.5025C7.42124 15.3919 7.3232 15.3069 7.20632 15.262C7.08945 15.2171 6.96097 15.215 6.84277 15.2562Z" fill="#95A0B2"/>
<path d="M5.95625 5.52187C7.48107 5.52187 8.71719 4.28576 8.71719 2.76094C8.71719 1.23611 7.48107 0 5.95625 0C4.43143 0 3.19531 1.23611 3.19531 2.76094C3.19531 4.28576 4.43143 5.52187 5.95625 5.52187Z" fill="#95A0B2"/>
</svg>
