<svg width="15" height="16" viewBox="0 0 15 16" fill="none" xmlns="http://www.w3.org/2000/svg">
<path d="M10.1562 2.9469C11.1229 3.33788 11.9507 4.00884 12.5332 4.87366C13.1158 5.73848 13.4266 6.75767 13.4258 7.80041C13.4266 8.8431 13.1158 9.86223 12.5332 10.727C11.9506 11.5917 11.1229 12.2626 10.1562 12.6535V13.7453C11.4074 13.3333 12.4964 12.5367 13.268 11.4691C14.0396 10.4016 14.4544 9.11763 14.4531 7.80041C14.4531 5.02737 12.6527 2.67346 10.1562 1.85198V2.9469ZM10.1562 5.52463C10.4852 5.80555 10.7492 6.1546 10.93 6.54761C11.1107 6.94062 11.2039 7.36822 11.2031 7.8008C11.204 8.23334 11.1108 8.6609 10.93 9.05385C10.7493 9.44681 10.4852 9.79578 10.1562 10.0766V11.1875C11.3242 10.5114 12.1094 9.24768 12.1094 7.8008C12.1096 7.11455 11.9293 6.44031 11.5865 5.84582C11.2436 5.25134 10.7504 4.75756 10.1562 4.41409V5.52463ZM1.17187 10.9289H4.29687L7.8125 15.2317C8.20312 15.7942 9.11719 15.7516 9.375 15.1137V0.519165C9.0582 -0.118335 8.22695 -0.169507 7.8125 0.369946L4.29687 4.68752H1.17187C0.171484 4.68752 0 4.8676 0 5.84534V9.75627C0 10.7102 0.195312 10.9289 1.17187 10.9289Z" fill="#95A0B2"/>
</svg>
