<svg width="72" height="58" viewBox="0 0 72 58" fill="none" xmlns="http://www.w3.org/2000/svg">
<path d="M71.6558 6.80819C69.0433 7.95322 66.2362 8.72707 63.2898 9.07522C66.2974 7.29339 68.6068 4.47181 69.6942 1.10993C66.8351 2.78699 63.7069 3.96859 60.4449 4.60367C57.7877 1.80566 54.0024 0.0570068 49.8127 0.0570068C41.7683 0.0570068 35.2463 6.50336 35.2463 14.4541C35.2463 15.5827 35.3752 16.6814 35.6234 17.7354C23.5178 17.1348 12.7849 11.4031 5.60058 2.69246C4.34703 4.81886 3.62873 7.2923 3.62873 9.93049C3.62873 14.9256 6.20046 19.3322 10.1087 21.9142C7.79554 21.8426 5.53332 21.2251 3.51087 20.1132C3.51003 20.1735 3.51003 20.2338 3.51003 20.2944C3.51003 27.2701 8.5309 33.0892 15.1941 34.4119C13.0492 34.9885 10.7993 35.0729 8.61632 34.6586C10.4697 40.3785 15.8492 44.5409 22.2229 44.6574C17.2378 48.5187 10.957 50.8205 4.13293 50.8205C2.95703 50.8205 1.79777 50.7523 0.658203 50.6193C7.10429 54.7044 14.7607 57.0879 22.9864 57.0879C49.7789 57.0879 64.4296 35.1493 64.4296 16.1238C64.4296 15.4994 64.4157 14.8785 64.3875 14.2611C67.2391 12.2235 69.7004 9.69971 71.6558 6.80819Z" fill="#55ACEE"/>
</svg>
