<svg width="11" height="11" viewBox="0 0 11 11" fill="none" xmlns="http://www.w3.org/2000/svg">
<path d="M10.9377 10.1455C10.984 10.032 11.0051 9.90462 10.9989 9.77695C10.9927 9.64929 10.9594 9.5262 10.9025 9.42088L5.95223 0.30174C5.90161 0.208557 5.83403 0.132409 5.75529 0.079815C5.67655 0.0272208 5.58899 -0.000251703 5.5001 -0.000251704C5.41122 -0.000251705 5.32365 0.0272208 5.24491 0.079815C5.16617 0.132409 5.0986 0.208557 5.04798 0.30174L0.0977196 9.42088C0.0406226 9.52611 0.00718765 9.64927 0.00103503 9.777C-0.00511758 9.90474 0.0162466 10.0322 0.0628144 10.1455C0.109382 10.2589 0.179379 10.3539 0.265225 10.4201C0.351072 10.4864 0.449497 10.5214 0.549843 10.5215L10.4504 10.5215C10.5508 10.5215 10.6493 10.4865 10.7352 10.4202C10.8211 10.3539 10.8911 10.2589 10.9377 10.1455Z" fill="#757D8C"/>
</svg>
