<svg width="13" height="12" viewBox="0 0 13 12" fill="none" xmlns="http://www.w3.org/2000/svg">
<path d="M10.7223 2.61662V2.44309C10.7223 2.01406 10.5487 1.6026 10.2397 1.29924C9.93068 0.99587 9.51155 0.825439 9.07453 0.825439H2.33355C2.14849 0.82547 1.96542 0.8629 1.79574 0.935399C1.62606 1.0079 1.4734 1.11391 1.34727 1.24685C1.22113 1.37978 1.12423 1.53678 1.06258 1.70807C1.00093 1.87936 0.97587 2.06128 0.988947 2.2425C0.986654 2.26025 0.985453 2.27813 0.985352 2.29603V9.50191C0.985352 10.0089 1.19052 10.4952 1.55573 10.8537C1.92094 11.2123 2.41627 11.4137 2.93275 11.4137H10.4227C10.8597 11.4137 11.2789 11.2432 11.5879 10.9399C11.8969 10.6365 12.0705 10.2251 12.0705 9.79603V4.20779C12.0706 3.8297 11.9358 3.46352 11.6896 3.17284C11.4433 2.88216 11.101 2.68536 10.7223 2.61662ZM2.33355 1.70779H9.07453C9.48798 1.70779 9.82353 2.0372 9.82353 2.44309V2.59015H2.33355C2.21436 2.59015 2.10005 2.54366 2.01577 2.46093C1.9315 2.37819 1.88415 2.26598 1.88415 2.14897C1.88415 2.03196 1.9315 1.91975 2.01577 1.83701C2.10005 1.75427 2.21436 1.70779 2.33355 1.70779ZM8.92473 6.70779H10.1231C10.2423 6.70779 10.3566 6.75427 10.4409 6.83701C10.5252 6.91975 10.5725 7.03196 10.5725 7.14897C10.5725 7.26598 10.5252 7.37819 10.4409 7.46093C10.3566 7.54366 10.2423 7.59015 10.1231 7.59015H8.92473C8.80554 7.59015 8.69124 7.54366 8.60696 7.46093C8.52268 7.37819 8.47533 7.26598 8.47533 7.14897C8.47533 7.03196 8.52268 6.91975 8.60696 6.83701C8.69124 6.75427 8.80554 6.70779 8.92473 6.70779Z" fill="white"/>
</svg>
