<svg width="56" height="13" viewBox="0 0 56 13" fill="none" xmlns="http://www.w3.org/2000/svg">
<path d="M26.6857 11.6071C27.329 11.6071 27.8505 11.1007 27.8505 10.4761C27.8505 9.85142 27.329 9.34505 26.6857 9.34505C26.0423 9.34505 25.5208 9.85142 25.5208 10.4761C25.5208 11.1007 26.0423 11.6071 26.6857 11.6071Z" fill="white"/>
<path d="M15.2871 3.97279H13.2487V11.4455H15.2871V3.97279Z" fill="white"/>
<path d="M23.2744 4.90182C22.6087 4.09396 21.6519 3.73042 20.3207 3.73042C18.9895 3.73042 18.0327 4.13435 17.3671 4.90182C16.7015 5.70968 16.4103 6.63872 16.4103 7.68893C16.4103 8.77954 16.7431 9.70858 17.3671 10.476C18.0327 11.2435 18.9895 11.6474 20.3207 11.6474C21.6519 11.6474 22.6087 11.2435 23.2744 10.476C23.94 9.70858 24.2312 8.77954 24.2312 7.68893C24.2312 6.63872 23.8984 5.70968 23.2744 4.90182ZM21.6519 9.42583C21.3191 9.82976 20.9031 10.0317 20.2791 10.0317C19.6967 10.0317 19.2391 9.82976 18.9063 9.42583C18.5735 9.0219 18.4487 8.4564 18.4487 7.68893C18.4487 6.96186 18.6151 6.35597 18.9063 5.95204C19.2391 5.54811 19.6551 5.34614 20.2791 5.34614C20.8615 5.34614 21.3191 5.54811 21.6519 5.95204C21.9847 6.35597 22.1095 6.92147 22.1095 7.68893C22.1095 8.4564 21.9847 9.0219 21.6519 9.42583Z" fill="white"/>
<path d="M14.2471 3.04375C14.8904 3.04375 15.4119 2.53738 15.4119 1.91274C15.4119 1.28811 14.8904 0.781738 14.2471 0.781738C13.6037 0.781738 13.0822 1.28811 13.0822 1.91274C13.0822 2.53738 13.6037 3.04375 14.2471 3.04375Z" fill="white"/>
<path d="M9.75427 7.60816L12.2503 3.97279H9.87907L8.63105 6.15401L7.34143 3.97279H3.47257L2.39096 5.6289H6.01021L7.38303 7.64855L5.92701 9.78938H2.39096L3.47257 11.4455H7.21663L8.54785 9.18348L9.87907 11.4455H12.3751L9.75427 7.60816Z" fill="white"/>
<path d="M6.13494 7.64854L5.55254 6.80029H1.60048L1.01807 7.64854L1.60048 8.4564H5.55254L6.13494 7.64854Z" fill="white"/>
<path fill-rule="evenodd" clip-rule="evenodd" d="M50.3518 1.46143H49.1457V11.5639H50.3083V7.61031C50.3083 7.50123 50.3184 7.39067 50.3294 7.27738L50.3311 7.25944C50.3408 7.15977 50.3508 7.05581 50.3518 6.95863C50.393 6.73719 50.4339 6.55629 50.5122 6.34212C50.5351 6.30056 50.5568 6.2592 50.5781 6.21839C50.6441 6.09241 50.7073 5.97163 50.7949 5.86634C50.9161 5.72071 51.0796 5.57321 51.2425 5.46308C51.4073 5.3517 51.6127 5.24073 51.8159 5.16702C52.0629 5.0932 52.3089 5.05656 52.5542 5.05656C53.2809 5.05656 53.7538 5.21202 54.0167 5.48283C54.2866 5.76092 54.4521 6.18857 54.4521 6.78709V11.5639H55.6583V6.78157C55.6583 6.51078 55.6583 6.22603 55.6129 5.93946C55.5646 5.63489 55.4216 5.33788 55.2368 5.0881L55.2347 5.08531C54.9122 4.67009 54.542 4.42007 54.1295 4.25485L54.1248 4.25315C53.6745 4.0908 53.2232 4.0095 52.7282 4.0095C52.1947 4.0095 51.6863 4.08912 51.2627 4.34361C50.9549 4.52856 50.6438 4.73934 50.3518 4.99465V1.46143ZM30.8224 2.24545H29.6162V4.2055H28.5288V5.17416H29.6162V10.1584C29.6162 10.6854 29.7498 11.1315 30.0143 11.3699L30.0192 11.3743L30.0244 11.3782C30.3141 11.5958 30.6934 11.7207 31.1544 11.7207C31.3874 11.7207 31.6168 11.6789 31.7946 11.6389C31.8367 11.6294 31.8747 11.6204 31.9095 11.6121C32.0306 11.5835 32.1132 11.5639 32.1983 11.5639V11.4128H32.1987H32.2577V10.4763L32.0528 10.5687C31.9788 10.602 31.8685 10.6345 31.7634 10.6345H31.7328L31.7048 10.6471C31.6835 10.6567 31.6482 10.6648 31.5941 10.6693C31.5412 10.6736 31.482 10.6737 31.4154 10.6737C31.3272 10.6737 31.2451 10.6736 31.1744 10.6691C31.0994 10.6642 31.0569 10.6552 31.039 10.6471C30.9783 10.6197 30.9165 10.5623 30.89 10.5145C30.8546 10.4506 30.8224 10.359 30.8224 10.276V5.17416H32.3012V4.2055H30.8224V2.24545ZM36.4174 4.00947C35.8406 4.00947 35.2965 4.08918 34.8365 4.2965C34.3858 4.4996 33.9789 4.78439 33.6608 5.11204L33.6577 5.11518L33.6549 5.11849C33.3371 5.4867 33.1117 5.89414 32.933 6.33692L32.9315 6.34115C32.7513 6.82829 32.6609 7.31695 32.6609 7.84549C32.6609 8.37343 32.7511 8.85842 32.884 9.33755L32.885 9.341C33.022 9.79366 33.2502 10.2044 33.5679 10.5725L33.5707 10.5758L33.5738 10.5789C33.8881 10.9027 34.2516 11.1902 34.7518 11.3955C35.2129 11.6027 35.8004 11.6815 36.4174 11.6815C36.9116 11.6815 37.3604 11.6005 37.7632 11.4795C38.1671 11.3581 38.4908 11.1937 38.7705 10.943C39.0444 10.7358 39.2704 10.4507 39.4821 10.1836L39.4933 10.1694L39.4976 10.1627C39.6741 9.88421 39.8588 9.55381 39.9519 9.17641L39.9984 8.98801H38.6914L38.6665 9.1074C38.5448 9.69272 38.2653 10.0502 37.8634 10.3038C37.4509 10.5641 36.9988 10.7129 36.4174 10.7129C35.9977 10.7129 35.6303 10.6369 35.3519 10.4935L35.3485 10.4918L35.3451 10.4903C35.0148 10.3415 34.77 10.157 34.566 9.93641C34.3658 9.71993 34.2043 9.4294 34.1235 9.10185L34.1214 9.09338L34.1184 9.08522C34.0126 8.79923 33.9668 8.51119 33.9564 8.19262H39.9999V8.0415C39.9999 6.7637 39.6898 5.74077 39.0466 5.03692C38.4027 4.33223 37.4895 4.00947 36.4174 4.00947ZM44.5075 4.00951C43.8801 4.00951 43.3381 4.13073 42.8831 4.33573C42.4335 4.53835 42.0247 4.82353 41.7044 5.19363C41.3808 5.5283 41.1553 5.98035 40.9798 6.41538L40.9765 6.42347L40.9742 6.43189C40.8415 6.91025 40.751 7.39543 40.751 7.88473C40.751 8.40299 40.7952 8.92898 40.9749 9.49708C41.1112 9.9869 41.3392 10.4002 41.6609 10.7327C41.9851 11.1069 42.3973 11.352 42.8397 11.5513C43.3011 11.7593 43.8896 11.8384 44.5075 11.8384C45.0017 11.8384 45.4505 11.7573 45.8533 11.6363L45.8594 11.6345L45.8654 11.6321C46.254 11.4764 46.6229 11.3125 46.9049 11.06C47.2253 10.8115 47.4542 10.5216 47.6358 10.1943C47.8177 9.86641 47.953 9.49941 48.0429 9.09451L48.0839 8.90964H46.8267L46.8006 9.02701C46.677 9.58404 46.4322 9.98718 46.0641 10.319C45.7093 10.6387 45.1841 10.7913 44.551 10.7913C44.0887 10.7913 43.7179 10.7157 43.3917 10.5687C43.0699 10.4237 42.8266 10.2058 42.62 9.94509C42.4127 9.6835 42.2507 9.38933 42.1702 9.06268C42.0864 8.72295 42.0442 8.34353 42.0442 8.00233C42.0442 7.62482 42.0858 7.2863 42.1687 6.94794C42.297 6.56325 42.4205 6.27215 42.62 6.02037L42.623 6.0166L42.6258 6.01264C42.8299 5.71822 43.071 5.50208 43.3917 5.35756L43.4015 5.35313L43.4106 5.34729C43.6821 5.17253 44.0421 5.09577 44.5075 5.09577C45.0986 5.09577 45.5404 5.20986 45.8967 5.49525L45.9003 5.49819L45.9042 5.50088C46.258 5.7489 46.4411 6.08069 46.6107 6.57748L46.6334 6.64418L46.7864 6.70301H47.8985L47.8707 6.52749C47.7349 5.6708 47.3689 5.04355 46.7662 4.62475C46.2104 4.20836 45.4373 4.00951 44.5075 4.00951ZM34.6965 5.75458C34.8943 5.54062 35.1343 5.39385 35.4319 5.24021C35.7201 5.12976 36.0484 5.05653 36.4174 5.05653C36.7878 5.05653 37.119 5.13027 37.4563 5.24404C37.7351 5.35231 37.9772 5.53325 38.1818 5.75458C38.3814 5.97043 38.503 6.18624 38.628 6.48514C38.701 6.74848 38.7687 6.99686 38.7882 7.26316H33.9779C34.0242 6.99282 34.0991 6.7439 34.2031 6.4939C34.3246 6.20202 34.4866 5.98159 34.6965 5.75458Z" fill="white"/>
</svg>
