<svg width="240" height="247" viewBox="0 0 280 280" fill="none" xmlns="http://www.w3.org/2000/svg">
<g opacity="0.7" filter="url(#filter0_f)">
<circle cx="139.866" cy="139.866" r="91.8659" fill="url(#paint0_linear)"/>
</g>
<circle cx="140" cy="140" r="92" fill="url(#paint1_linear)" fill-opacity="0.1" stroke="url(#paint2_linear)" stroke-width="2"/>
<path d="M140 225C186.944 225 225 186.944 225 140C225 93.0558 186.944 55 140 55C93.0558 55 55 93.0558 55 140C55 186.944 93.0558 225 140 225Z" fill="url(#paint3_linear)"/>
<path d="M65.2069 180.476L181.708 65.9109C177.484 63.4471 172.909 61.5113 168.333 59.7515L59.3994 166.925C60.9833 171.677 62.9191 176.077 65.2069 180.476Z" fill="white" fill-opacity="0.3"/>
<path d="M140 55C93.0124 55 55 93.0124 55 140C55 142.64 55.176 145.104 55.352 147.567L149.151 55.528C146.159 55.176 143.168 55 140 55Z" fill="white" fill-opacity="0.5"/>
<path d="M208.817 140.002C208.817 101.998 178.009 71.1893 140.005 71.1893C102.001 71.1893 71.1924 101.998 71.1924 140.002C71.1924 178.006 102.001 208.814 140.005 208.814C178.009 208.814 208.817 178.006 208.817 140.002Z" fill="#FF8C64"/>
<path d="M208.809 140C208.809 115.362 195.786 93.7163 176.428 81.5734C167.629 77.5258 157.774 75.238 147.391 75.238C109.378 75.238 78.5811 106.035 78.5811 144.048C78.5811 168.685 91.6038 190.331 110.962 202.474C119.761 206.522 129.616 208.809 139.999 208.809C178.012 208.809 208.809 178.012 208.809 140Z" fill="url(#paint4_linear)"/>
<path d="M197.371 102.164C204.586 113.075 208.81 126.097 208.81 140C208.81 178.012 178.013 208.81 140 208.81C117.826 208.81 98.1161 198.251 85.4453 181.884C97.7642 200.538 118.882 212.681 142.816 212.681C180.828 212.681 211.625 181.884 211.625 144.048C211.625 128.209 206.346 113.778 197.371 102.164Z" fill="white" fill-opacity="0.2"/>
<g style="mix-blend-mode:overlay">
<path d="M144.225 55.1762C142.817 55.0002 141.409 55.0002 140.001 55.0002C138.593 55.0002 137.185 55.0002 135.777 55.1762V59.9278H144.049V55.1762H144.225Z" fill="white"/>
<path d="M108.676 66.0873L116.419 63.2716L114.835 58.696C112.195 59.576 109.556 60.4559 107.092 61.5118L108.676 66.0873Z" fill="white"/>
<path d="M172.909 61.6873C170.445 60.6314 167.806 59.7515 165.166 58.8716L163.582 63.2712L171.325 66.0869L172.909 61.6873Z" fill="white"/>
<path d="M85.27 81.222L91.6054 75.9425L88.6137 72.2468C86.3259 74.0067 84.2141 75.7665 82.2783 77.5263L85.27 81.222Z" fill="white"/>
<path d="M211.45 176.429L207.227 183.644L211.274 185.932C212.858 183.644 214.09 181.18 215.498 178.717L211.45 176.429Z" fill="white"/>
<path d="M88.6137 207.754L91.6054 204.058L85.27 198.779L82.2783 202.474C84.2141 204.234 86.3259 205.994 88.6137 207.754Z" fill="white"/>
<path d="M215.674 101.108C214.442 98.6444 213.034 96.1806 211.45 93.8928L207.402 96.1806L211.626 103.396L215.674 101.108Z" fill="white"/>
<path d="M219.72 149.855L218.312 157.95L223.064 158.83C223.592 156.191 224.12 153.375 224.472 150.559L219.72 149.855Z" fill="white"/>
<path d="M218.137 122.05L219.545 130.145L224.12 129.265C223.768 126.449 223.24 123.81 222.712 120.994L218.137 122.05Z" fill="white"/>
<path d="M61.8635 157.95L60.2797 149.855L55.7041 150.735C56.0561 153.551 56.584 156.191 57.112 159.006L61.8635 157.95Z" fill="white"/>
<path d="M60.2799 130.145L61.6877 122.05L56.9362 121.17C56.4082 123.81 55.8803 126.625 55.5283 129.441L60.2799 130.145Z" fill="white"/>
<path d="M68.5515 103.572L72.7751 96.3564L68.7275 94.0686C67.1437 96.3564 65.9118 98.8202 64.5039 101.284L68.5515 103.572Z" fill="white"/>
<path d="M116.419 216.729L108.676 213.913L107.092 218.313C109.556 219.369 112.195 220.249 114.835 221.129L116.419 216.729Z" fill="white"/>
<path d="M64.3271 178.892C65.559 181.356 66.9669 183.82 68.5508 186.108L72.5984 183.82L68.5508 176.429L64.3271 178.892Z" fill="white"/>
<path d="M171.325 213.913L163.582 216.729L165.166 221.129C167.806 220.249 170.445 219.369 172.909 218.313L171.325 213.913Z" fill="white"/>
<path d="M191.388 72.2468L188.396 75.9425L194.732 81.222L197.724 77.5263C195.788 75.7665 193.676 74.0067 191.388 72.2468Z" fill="white"/>
<path d="M144.224 224.824V220.073H135.953V224.824C137.361 224.824 138.769 225 140.177 225C141.409 225 142.816 225 144.224 224.824Z" fill="white"/>
<path d="M194.732 198.779L188.396 204.058L191.388 207.754C193.676 205.994 195.788 204.234 197.724 202.474L194.732 198.779Z" fill="white"/>
</g>
<path d="M153.484 135.505C148.966 127.194 144.385 118.882 139.803 110.489V110.407C139.803 110.407 139.803 110.407 139.803 110.489C139.803 110.489 139.803 110.489 139.803 110.407V110.489C135.221 118.882 130.64 127.194 126.122 135.505C117.213 130.779 108.369 126.053 99.46 121.327C103.978 134.446 108.559 147.565 113.077 160.684C121.795 160.684 130.576 160.684 139.294 160.684C139.612 160.684 139.93 160.684 140.312 160.684C149.03 160.684 157.811 160.684 166.529 160.684C171.047 147.565 175.628 134.446 180.146 121.327C171.237 126.053 162.393 130.779 153.484 135.505Z" fill="white"/>
<path d="M164.404 170.415H115.201C114.128 170.415 113.245 169.316 113.245 167.982C113.245 166.648 114.128 165.55 115.201 165.55H164.404C165.477 165.55 166.36 166.648 166.36 167.982C166.297 169.316 165.477 170.415 164.404 170.415Z" fill="white" fill-opacity="0.6"/>
<defs>
<filter id="filter0_f" x="0" y="0" width="279.732" height="279.732" filterUnits="userSpaceOnUse" color-interpolation-filters="sRGB">
<feFlood flood-opacity="0" result="BackgroundImageFix"/>
<feBlend mode="normal" in="SourceGraphic" in2="BackgroundImageFix" result="shape"/>
<feGaussianBlur stdDeviation="24" result="effect1_foregroundBlur"/>
</filter>
<linearGradient id="paint0_linear" x1="139.866" y1="48" x2="139.866" y2="231.732" gradientUnits="userSpaceOnUse">
<stop stop-color="#FFE669"/>
<stop offset="0.461458" stop-color="#FF8C64"/>
<stop offset="1" stop-color="#FF6464"/>
</linearGradient>
<linearGradient id="paint1_linear" x1="140" y1="47" x2="140" y2="233" gradientUnits="userSpaceOnUse">
<stop stop-color="#FFE669"/>
<stop offset="0.461458" stop-color="#FF8C64"/>
<stop offset="1" stop-color="#FF6464"/>
</linearGradient>
<linearGradient id="paint2_linear" x1="140" y1="47" x2="140" y2="233" gradientUnits="userSpaceOnUse">
<stop stop-color="#FFE669"/>
<stop offset="0.461458" stop-color="#FF8C64"/>
<stop offset="1" stop-color="#FF6464"/>
</linearGradient>
<linearGradient id="paint3_linear" x1="140" y1="55" x2="140" y2="225" gradientUnits="userSpaceOnUse">
<stop stop-color="#FFE669"/>
<stop offset="0.461458" stop-color="#FF8C64"/>
<stop offset="1" stop-color="#FF6464"/>
</linearGradient>
<linearGradient id="paint4_linear" x1="143.695" y1="75.238" x2="143.695" y2="208.809" gradientUnits="userSpaceOnUse">
<stop stop-color="#FFE669"/>
<stop offset="0.461458" stop-color="#FF8C64"/>
<stop offset="1" stop-color="#FF6464"/>
</linearGradient>
</defs>
</svg>
