<svg width="24" height="24" viewBox="0 0 24 24" fill="none" xmlns="http://www.w3.org/2000/svg">
<g style="mix-blend-mode:luminosity">
<path d="M12 24C18.6274 24 24 18.6274 24 12C24 5.37258 18.6274 0 12 0C5.37258 0 0 5.37258 0 12C0 18.6274 5.37258 24 12 24Z" fill="url(#paint0_linear)"/>
<path d="M1.44097 17.7144L17.8882 1.54046C17.2919 1.19264 16.6459 0.919346 16 0.670898L0.621094 15.8013C0.844696 16.4721 1.11799 17.0933 1.44097 17.7144Z" fill="white" fill-opacity="0.3"/>
<path d="M12 0C5.36646 0 0 5.36646 0 12C0 12.3727 0.0248447 12.7205 0.0496894 13.0683L13.2919 0.0745341C12.8696 0.0248447 12.4472 0 12 0Z" fill="white" fill-opacity="0.5"/>
<path d="M21.7155 12.0001C21.7155 6.63487 17.3661 2.28546 12.0008 2.28546C6.63555 2.28546 2.28613 6.63488 2.28613 12.0002C2.28613 17.3654 6.63555 21.7148 12.0008 21.7148C17.3661 21.7148 21.7155 17.3654 21.7155 12.0001Z" fill="#999"/>
<path d="M21.7142 12C21.7142 8.52177 19.8757 5.46587 17.1428 3.75159C15.9005 3.18016 14.5092 2.85718 13.0434 2.85718C7.67693 2.85718 3.3291 7.205 3.3291 12.5715C3.3291 16.0497 5.16761 19.1056 7.90053 20.8199C9.14276 21.3913 10.5341 21.7143 11.9999 21.7143C17.3664 21.7143 21.7142 17.3665 21.7142 12Z" fill="url(#paint1_linear)"/>
<path d="M20.0996 6.65845C21.1182 8.19882 21.7145 10.0373 21.7145 12.0001C21.7145 17.3665 17.3667 21.7143 12.0002 21.7143C8.86977 21.7143 6.08716 20.2237 4.29834 17.9131C6.03747 20.5466 9.01883 22.2609 12.3977 22.2609C17.7642 22.2609 22.112 17.9131 22.112 12.5715C22.112 10.3355 21.3667 8.2982 20.0996 6.65845Z" fill="white" fill-opacity="0.2"/>
<g style="mix-blend-mode:overlay">
<path d="M12.5964 0.0248447C12.3976 0 12.1988 0 12.0001 0C11.8013 0 11.6026 0 11.4038 0.0248447V0.695652H12.5715V0.0248447H12.5964Z" fill="white"/>
<path d="M7.57761 1.56521L8.67077 1.16769L8.44717 0.521729C8.0745 0.645952 7.70183 0.770176 7.354 0.919244L7.57761 1.56521Z" fill="white"/>
<path d="M16.6459 0.944146C16.298 0.795078 15.9254 0.670854 15.5527 0.546631L15.3291 1.16775L16.4223 1.56526L16.6459 0.944146Z" fill="white"/>
<path d="M4.27343 3.70189L5.16784 2.95655L4.74548 2.43481C4.4225 2.68326 4.12437 2.93171 3.85107 3.18016L4.27343 3.70189Z" fill="white"/>
<path d="M22.087 17.1428L21.4907 18.1615L22.0622 18.4844C22.2858 18.1615 22.4597 17.8136 22.6584 17.4658L22.087 17.1428Z" fill="white"/>
<path d="M4.74548 21.5652L5.16784 21.0434L4.27343 20.2981L3.85107 20.8198C4.12437 21.0683 4.4225 21.3167 4.74548 21.5652Z" fill="white"/>
<path d="M22.6833 6.50936C22.5094 6.16153 22.3107 5.8137 22.0871 5.49072L21.5156 5.8137L22.1119 6.83234L22.6833 6.50936Z" fill="white"/>
<path d="M23.2549 13.3914L23.0562 14.5342L23.727 14.6584C23.8015 14.2858 23.876 13.8883 23.9257 13.4907L23.2549 13.3914Z" fill="white"/>
<path d="M23.0312 9.46572L23.23 10.6086L23.876 10.4844C23.8263 10.0868 23.7517 9.71417 23.6772 9.31665L23.0312 9.46572Z" fill="white"/>
<path d="M0.969174 14.5342L0.745572 13.3914L0.0996094 13.5156C0.149299 13.9131 0.223833 14.2858 0.298367 14.6833L0.969174 14.5342Z" fill="white"/>
<path d="M0.745514 10.6086L0.944272 9.46578L0.273465 9.34155C0.198931 9.71422 0.124396 10.1117 0.074707 10.5093L0.745514 10.6086Z" fill="white"/>
<path d="M1.91323 6.85724L2.5095 5.83861L1.93807 5.51562C1.71447 5.83861 1.54055 6.18643 1.3418 6.53426L1.91323 6.85724Z" fill="white"/>
<path d="M8.67077 22.8323L7.57761 22.4348L7.354 23.0559C7.70183 23.205 8.0745 23.3292 8.44717 23.4534L8.67077 22.8323Z" fill="white"/>
<path d="M1.31689 17.4906C1.49081 17.8385 1.68957 18.1863 1.91317 18.5093L2.4846 18.1863L1.91317 17.1428L1.31689 17.4906Z" fill="white"/>
<path d="M16.4223 22.4348L15.3291 22.8323L15.5527 23.4534C15.9254 23.3292 16.298 23.205 16.6459 23.0559L16.4223 22.4348Z" fill="white"/>
<path d="M19.2549 2.43481L18.8325 2.95655L19.7269 3.70189L20.1493 3.18016C19.876 2.93171 19.5779 2.68326 19.2549 2.43481Z" fill="white"/>
<path d="M12.5964 23.9753V23.3044H11.4287V23.9753C11.6275 23.9753 11.8262 24.0001 12.025 24.0001C12.1989 24.0001 12.3977 24.0001 12.5964 23.9753Z" fill="white"/>
<path d="M19.7269 20.2981L18.8325 21.0434L19.2549 21.5652C19.5779 21.3167 19.876 21.0683 20.1493 20.8198L19.7269 20.2981Z" fill="white"/>
</g>
<g clip-path="url(#clip0)">
<path d="M16.3852 12.8581L12.0073 14.4796L7.62939 12.8581L12.0073 5.34009L16.3852 12.8581Z" fill="white" fill-opacity="0.6"/>
<path d="M16.1942 13.7612L12.0075 18.66L7.8208 13.7612L12.0075 15.3118L16.1942 13.7612Z" fill="white" fill-opacity="0.6"/>
<path d="M12.0073 15.3118L16.194 13.7612L12.0073 18.66V15.3118Z" fill="white"/>
<path d="M16.3852 12.8581L12.0073 14.4796V5.34009L16.3852 12.8581Z" fill="white"/>
</g>
</g>
<defs>
<linearGradient id="paint0_linear" x1="12.0239" y1="0.0291025" x2="12.4928" y2="23.9981" gradientUnits="userSpaceOnUse">
<stop stop-color="#999"/>
<stop offset="0.1325" stop-color="#999"/>
<stop offset="0.3879" stop-color="#999"/>
<stop offset="0.737" stop-color="#999"/>
<stop offset="1" stop-color="#999"/>
</linearGradient>
<linearGradient id="paint1_linear" x1="12.5399" y1="2.88004" x2="12.9179" y2="21.7125" gradientUnits="userSpaceOnUse">
<stop stop-color="#999"/>
<stop offset="0.1325" stop-color="#999"/>
<stop offset="0.3879" stop-color="#999"/>
<stop offset="0.737" stop-color="#999"/>
<stop offset="1" stop-color="#999"/>
</linearGradient>
<clipPath id="clip0">
<rect width="13.32" height="13.32" fill="white" transform="translate(5.33984 5.34009)"/>
</clipPath>
</defs>
</svg>
