<svg width="29" height="37" viewBox="0 0 29 37" fill="none" xmlns="http://www.w3.org/2000/svg">
<path d="M14.3893 37C12.3029 37 10.5957 35.2923 10.5957 33.2051H18.1829C18.1829 34.2116 17.7832 35.1768 17.0718 35.8885C16.3604 36.6002 15.3954 37 14.3893 37ZM3.00857 25.6154V16.1282C3.00857 10.3031 6.11931 5.42667 11.5441 4.13641V2.84615C11.5441 1.27128 12.815 0 14.3893 0C15.9637 0 17.2345 1.27128 17.2345 2.84615V4.13641C22.6783 5.42667 25.7701 10.2841 25.7701 16.1282V25.6154L28.2169 28.0631C29.4119 29.2585 28.5773 31.3077 26.8892 31.3077H1.90843C0.220285 31.3077 -0.633274 29.2585 0.561707 28.0631L3.00857 25.6154Z" fill="#203153"/>
</svg>
