<svg width="45" height="32" viewBox="0 0 45 32" fill="none" xmlns="http://www.w3.org/2000/svg">
<path d="M0.557393 1.47757C0.371211 1.81359 0.28603 2.19154 0.310978 2.57085C0.335926 2.95015 0.470064 3.3165 0.699003 3.63055L20.6134 30.8236C20.817 31.1014 21.0889 31.3291 21.4056 31.487C21.7224 31.6449 22.0747 31.7284 22.4322 31.7304C22.7898 31.7323 23.1421 31.6526 23.4588 31.4981C23.7756 31.3436 24.0475 31.1189 24.2511 30.8433L44.1655 3.86619C44.3952 3.55486 44.5297 3.18981 44.5544 2.81055C44.5792 2.4313 44.4932 2.0523 44.3059 1.71459C44.1186 1.37688 43.837 1.09332 43.4916 0.894635C43.1463 0.695946 42.7503 0.589691 42.3466 0.587374L2.51785 0.371458C2.11395 0.369205 1.71773 0.471091 1.37215 0.666073C1.02657 0.861054 0.744802 1.14169 0.557393 1.47757Z" fill="white"/>
</svg>
