<svg width="183" height="52" viewBox="0 0 183 52" fill="none" xmlns="http://www.w3.org/2000/svg">
<rect width="182.398" height="51.1115" rx="25.5558" fill="#F34766"/>
<g filter="url(#filter0_b)">
<path d="M2.00391 25.5558C2.00391 12.5487 12.5482 2.00439 25.5553 2.00439H156.842C169.849 2.00439 180.393 12.5487 180.393 25.5558C180.393 38.5629 169.849 49.1072 156.842 49.1072H25.5553C12.5482 49.1072 2.00391 38.5629 2.00391 25.5558Z" fill="white" fill-opacity="0.1"/>
<path d="M2.00391 25.5558C2.00391 12.5487 12.5482 2.00439 25.5553 2.00439H156.842C169.849 2.00439 180.393 12.5487 180.393 25.5558C180.393 38.5629 169.849 49.1072 156.842 49.1072H25.5553C12.5482 49.1072 2.00391 38.5629 2.00391 25.5558Z" fill="url(#paint0_linear)"/>
<path d="M3.00391 25.5558C3.00391 13.101 13.1005 3.00439 25.5553 3.00439H156.842C169.297 3.00439 179.393 13.101 179.393 25.5558C179.393 38.0106 169.297 48.1072 156.842 48.1072H25.5553C13.1005 48.1072 3.00391 38.0106 3.00391 25.5558Z" stroke="url(#paint1_linear)" stroke-width="2"/>
</g>
<path d="M37.0134 18.022L42.8493 28.3657V34.022H46.2087V28.3657L52.0446 18.022H48.2555L44.6071 24.9126H44.4509L40.8024 18.022H37.0134ZM67.6286 26.022C67.6286 20.7876 64.3786 17.8032 60.1364 17.8032C55.8708 17.8032 52.6442 20.7876 52.6442 26.022C52.6442 31.2329 55.8708 34.2407 60.1364 34.2407C64.3786 34.2407 67.6286 31.2563 67.6286 26.022ZM64.1989 26.022C64.1989 29.4126 62.5895 31.2485 60.1364 31.2485C57.6755 31.2485 56.0739 29.4126 56.0739 26.022C56.0739 22.6313 57.6755 20.7954 60.1364 20.7954C62.5895 20.7954 64.1989 22.6313 64.1989 26.022ZM80.0173 18.022V28.1235C80.0173 29.9517 78.736 31.272 76.7673 31.272C74.8063 31.272 73.5173 29.9517 73.5173 28.1235V18.022H70.1345V28.4126C70.1345 31.9126 72.7751 34.2485 76.7673 34.2485C80.7438 34.2485 83.4001 31.9126 83.4001 28.4126V18.022H80.0173ZM91.2751 34.022H101.517V31.2329H94.6579V18.022H91.2751V34.022ZM117.838 26.022C117.838 20.7876 114.588 17.8032 110.345 17.8032C106.08 17.8032 102.853 20.7876 102.853 26.022C102.853 31.2329 106.08 34.2407 110.345 34.2407C114.588 34.2407 117.838 31.2563 117.838 26.022ZM114.408 26.022C114.408 29.4126 112.799 31.2485 110.345 31.2485C107.884 31.2485 106.283 29.4126 106.283 26.022C106.283 22.6313 107.884 20.7954 110.345 20.7954C112.799 20.7954 114.408 22.6313 114.408 26.022ZM129.023 22.6235H132.265C132.218 19.772 129.875 17.8032 126.312 17.8032C122.804 17.8032 120.234 19.7407 120.25 22.647C120.242 25.0063 121.906 26.3579 124.609 27.0063L126.351 27.4438C128.093 27.8657 129.062 28.3657 129.07 29.4438C129.062 30.6157 127.953 31.4126 126.234 31.4126C124.476 31.4126 123.211 30.6001 123.101 28.9985H119.828C119.914 32.4595 122.39 34.2485 126.273 34.2485C130.179 34.2485 132.476 32.3813 132.484 29.4517C132.476 26.7876 130.468 25.3735 127.687 24.7485L126.25 24.4048C124.859 24.0845 123.695 23.5688 123.718 22.4204C123.718 21.3892 124.632 20.6313 126.289 20.6313C127.906 20.6313 128.898 21.3657 129.023 22.6235ZM134.759 34.022H145.572V31.2329H138.142V27.4126H144.986V24.6235H138.142V20.811H145.541V18.022H134.759V34.022Z" fill="white"/>
<g opacity="0.3">
<mask id="mask0" mask-type="alpha" maskUnits="userSpaceOnUse" x="0" y="0" width="183" height="52">
<rect width="182.398" height="51.1115" rx="25.5558" fill="#3200B8"/>
<path d="M180.394 25.556C180.394 38.5631 169.849 49.1074 156.842 49.1074H25.5557C12.5486 49.1074 2.00427 38.5631 2.00427 25.556C2.00427 12.549 12.5486 2.00464 25.5557 2.00464H156.842C169.849 2.00464 180.394 12.549 180.394 25.556Z" fill="url(#paint2_linear)"/>
<path d="M37.851 18.022L43.687 28.3657V34.022H47.0463V28.3657L52.8823 18.022H49.0932L45.4448 24.9126H45.2885L41.6401 18.022H37.851ZM68.4662 26.022C68.4662 20.7876 65.2162 17.8032 60.9741 17.8032C56.7084 17.8032 53.4819 20.7876 53.4819 26.022C53.4819 31.2329 56.7084 34.2407 60.9741 34.2407C65.2162 34.2407 68.4662 31.2563 68.4662 26.022ZM65.0366 26.022C65.0366 29.4126 63.4272 31.2485 60.9741 31.2485C58.5131 31.2485 56.9116 29.4126 56.9116 26.022C56.9116 22.6313 58.5131 20.7954 60.9741 20.7954C63.4272 20.7954 65.0366 22.6313 65.0366 26.022ZM80.8549 18.022V28.1235C80.8549 29.9517 79.5737 31.272 77.6049 31.272C75.644 31.272 74.3549 29.9517 74.3549 28.1235V18.022H70.9721V28.4126C70.9721 31.9126 73.6127 34.2485 77.6049 34.2485C81.5815 34.2485 84.2377 31.9126 84.2377 28.4126V18.022H80.8549ZM95.7143 34.022H99.0112L102.05 23.561H102.175L105.222 34.022H108.519L113.097 18.022H109.402L106.753 29.1626H106.613L103.699 18.022H100.535L97.6127 29.1392H97.4799L94.8315 18.022H91.1362L95.7143 34.022ZM128.708 26.022C128.708 20.7876 125.458 17.8032 121.216 17.8032C116.951 17.8032 113.724 20.7876 113.724 26.022C113.724 31.2329 116.951 34.2407 121.216 34.2407C125.458 34.2407 128.708 31.2563 128.708 26.022ZM125.279 26.022C125.279 29.4126 123.669 31.2485 121.216 31.2485C118.755 31.2485 117.154 29.4126 117.154 26.022C117.154 22.6313 118.755 20.7954 121.216 20.7954C123.669 20.7954 125.279 22.6313 125.279 26.022ZM144.597 18.022H141.23V28.0845H141.089L134.183 18.022H131.214V34.022H134.597V23.9517H134.714L141.675 34.022H144.597V18.022Z" fill="white"/>
</mask>
<g mask="url(#mask0)">
<rect x="42.959" y="-25.5449" width="22.0223" height="116.589" transform="rotate(33.4905 42.959 -25.5449)" fill="url(#paint3_linear)"/>
<rect x="144.003" y="-35.0269" width="56.389" height="116.589" transform="rotate(33.4905 144.003 -35.0269)" fill="url(#paint4_linear)"/>
<rect x="108.378" y="-21.6255" width="17.5647" height="116.589" transform="rotate(33.4905 108.378 -21.6255)" fill="url(#paint5_linear)"/>
</g>
</g>
<defs>
<filter id="filter0_b" x="-11.9961" y="-11.9956" width="206.389" height="75.1028" filterUnits="userSpaceOnUse" color-interpolation-filters="sRGB">
<feFlood flood-opacity="0" result="BackgroundImageFix"/>
<feGaussianBlur in="BackgroundImage" stdDeviation="7"/>
<feComposite in2="SourceAlpha" operator="in" result="effect1_backgroundBlur"/>
<feBlend mode="normal" in="SourceGraphic" in2="effect1_backgroundBlur" result="shape"/>
</filter>
<linearGradient id="paint0_linear" x1="2.00391" y1="2.00439" x2="10.5883" y2="60.8639" gradientUnits="userSpaceOnUse">
<stop stop-color="#F34766"/>
<stop offset="1" stop-color="#F34766" stop-opacity="0"/>
</linearGradient>
<linearGradient id="paint1_linear" x1="-35.5768" y1="-1.38909" x2="-31.5263" y2="57.5105" gradientUnits="userSpaceOnUse">
<stop stop-opacity="0.2"/>
<stop offset="1" stop-color="white" stop-opacity="0"/>
</linearGradient>
<linearGradient id="paint2_linear" x1="180.394" y1="49.1074" x2="142.883" y2="-49.3678" gradientUnits="userSpaceOnUse">
<stop stop-color="#6536F1"/>
<stop offset="1" stop-color="#2DD3BF" stop-opacity="0"/>
</linearGradient>
<linearGradient id="paint3_linear" x1="53.9702" y1="-25.5449" x2="53.9702" y2="91.0439" gradientUnits="userSpaceOnUse">
<stop stop-color="white"/>
<stop offset="1" stop-color="white" stop-opacity="0"/>
</linearGradient>
<linearGradient id="paint4_linear" x1="172.197" y1="-35.0269" x2="172.197" y2="81.562" gradientUnits="userSpaceOnUse">
<stop stop-color="white"/>
<stop offset="1" stop-color="white" stop-opacity="0"/>
</linearGradient>
<linearGradient id="paint5_linear" x1="117.16" y1="-21.6255" x2="117.16" y2="94.9633" gradientUnits="userSpaceOnUse">
<stop stop-color="white"/>
<stop offset="1" stop-color="white" stop-opacity="0"/>
</linearGradient>
</defs>
</svg>
