<svg width="409" height="409" viewBox="0 0 489 489" fill="none" xmlns="http://www.w3.org/2000/svg">
<path d="M206.248 2.98145C180.894 6.9591 156.332 14.9327 133.477 26.6051L244.502 244.502L206.248 2.98145Z" fill="#B351EF"/>
<path d="M355.522 26.6051C332.667 14.9327 308.105 6.9591 282.751 2.98145L244.5 244.502L355.522 26.6051Z" fill="#B351EF"/>
<path d="M71.6152 71.6143C53.4667 89.7521 38.2786 110.627 26.6055 133.476L244.503 244.502L71.6152 71.6143Z" fill="#B351EF"/>
<path d="M133.475 26.6045C110.627 38.2787 89.7519 53.4668 71.6133 71.6142L244.501 244.502L133.475 26.6045Z" fill="#2AB2E3"/>
<path d="M26.6041 133.477C14.9322 156.332 6.95861 180.894 2.98047 206.248L244.501 244.502L26.6041 133.477Z" fill="#EF51DF"/>
<path d="M486.017 206.248C482.039 180.894 474.066 156.332 462.394 133.477L244.5 244.502L486.017 206.248Z" fill="#EF51DF"/>
<path d="M417.387 71.6142C399.247 53.4674 378.371 38.2795 355.522 26.6045L244.5 244.502L417.387 71.6142Z" fill="#2AB2E3"/>
<path d="M486.017 282.753C488.005 270.099 489.001 257.31 488.999 244.502C489.001 231.692 488.005 218.902 486.017 206.247L244.5 244.502L486.017 282.753Z" fill="#B351EF"/>
<path d="M462.394 133.476C450.721 110.628 435.534 89.753 417.387 71.6143L244.5 244.502L462.394 133.476Z" fill="#B351EF"/>
<path d="M282.752 2.98121C270.098 0.993984 257.309 -0.00277086 244.501 5.78506e-06C231.691 -0.00276814 218.901 0.993986 206.246 2.98121L244.501 244.502L282.752 2.98121Z" fill="#F9871E"/>
<path d="M355.522 462.396C378.371 450.722 399.247 435.535 417.387 417.389L244.5 244.502L355.522 462.396Z" fill="#EF51DF"/>
<path d="M282.751 486.023C308.104 482.042 332.666 474.068 355.522 462.396L244.5 244.502L282.751 486.023Z" fill="#B351EF"/>
<path d="M206.246 486.023C218.901 488.007 231.691 489.003 244.501 489.001C257.309 489.003 270.098 488.007 282.752 486.023L244.501 244.502L206.246 486.023Z" fill="#EF51DF"/>
<path d="M244.5 244.502L462.394 355.524C474.066 332.669 482.04 308.107 486.017 282.753L244.5 244.502Z" fill="#EF51DF"/>
<path d="M417.387 417.389C435.533 399.249 450.72 378.373 462.394 355.524L244.5 244.502L417.387 417.389Z" fill="#B351EF"/>
<path d="M71.6133 417.389C89.752 435.536 110.627 450.723 133.475 462.396L244.501 244.502L71.6133 417.389Z" fill="#EF51DF"/>
<path d="M2.98047 282.753C6.95812 308.107 14.9318 332.669 26.6041 355.524L244.501 244.502L2.98047 282.753Z" fill="#EF51DF"/>
<path d="M133.477 462.396C156.332 474.068 180.894 482.042 206.248 486.023L244.502 244.502L133.477 462.396Z" fill="#B351EF"/>
<path d="M26.6055 355.524C38.2793 378.374 53.4674 399.25 71.6152 417.389L244.503 244.502L26.6055 355.524Z" fill="#B351EF"/>
<path d="M2.98117 206.247C0.993946 218.902 -0.00276814 231.692 5.78529e-06 244.502C-0.00277086 257.31 0.993944 270.099 2.98117 282.753L244.502 244.502L2.98117 206.247Z" fill="#B351EF"/>
</svg>
