<svg width="183" height="52" viewBox="0 0 183 52" fill="none" xmlns="http://www.w3.org/2000/svg">
<rect width="182.398" height="51.1115" rx="25.5558" fill="#2DD3BF"/>
<g filter="url(#filter0_b)">
<path d="M2.00391 25.5558C2.00391 12.5487 12.5482 2.00439 25.5553 2.00439H156.842C169.849 2.00439 180.393 12.5487 180.393 25.5558C180.393 38.5629 169.849 49.1072 156.842 49.1072H25.5553C12.5482 49.1072 2.00391 38.5629 2.00391 25.5558Z" fill="url(#paint0_linear)"/>
<path d="M4.00391 25.5558C4.00391 13.6533 13.6528 4.00439 25.5553 4.00439H156.842C168.744 4.00439 178.393 13.6533 178.393 25.5558C178.393 37.4583 168.744 47.1072 156.842 47.1072H25.5553C13.6528 47.1072 4.00391 37.4583 4.00391 25.5558Z" stroke="url(#paint1_linear)" stroke-width="4"/>
</g>
<path d="M37.851 18.022L43.687 28.3657V34.022H47.0463V28.3657L52.8823 18.022H49.0932L45.4448 24.9126H45.2885L41.6401 18.022H37.851ZM68.4662 26.022C68.4662 20.7876 65.2162 17.8032 60.9741 17.8032C56.7084 17.8032 53.4819 20.7876 53.4819 26.022C53.4819 31.2329 56.7084 34.2407 60.9741 34.2407C65.2162 34.2407 68.4662 31.2563 68.4662 26.022ZM65.0366 26.022C65.0366 29.4126 63.4272 31.2485 60.9741 31.2485C58.5131 31.2485 56.9116 29.4126 56.9116 26.022C56.9116 22.6313 58.5131 20.7954 60.9741 20.7954C63.4272 20.7954 65.0366 22.6313 65.0366 26.022ZM80.8549 18.022V28.1235C80.8549 29.9517 79.5737 31.272 77.6049 31.272C75.644 31.272 74.3549 29.9517 74.3549 28.1235V18.022H70.9721V28.4126C70.9721 31.9126 73.6127 34.2485 77.6049 34.2485C81.5815 34.2485 84.2377 31.9126 84.2377 28.4126V18.022H80.8549ZM95.7143 34.022H99.0112L102.05 23.561H102.175L105.222 34.022H108.519L113.097 18.022H109.402L106.753 29.1626H106.613L103.699 18.022H100.535L97.6127 29.1392H97.4799L94.8315 18.022H91.1362L95.7143 34.022ZM128.708 26.022C128.708 20.7876 125.458 17.8032 121.216 17.8032C116.951 17.8032 113.724 20.7876 113.724 26.022C113.724 31.2329 116.951 34.2407 121.216 34.2407C125.458 34.2407 128.708 31.2563 128.708 26.022ZM125.279 26.022C125.279 29.4126 123.669 31.2485 121.216 31.2485C118.755 31.2485 117.154 29.4126 117.154 26.022C117.154 22.6313 118.755 20.7954 121.216 20.7954C123.669 20.7954 125.279 22.6313 125.279 26.022ZM144.597 18.022H141.23V28.0845H141.089L134.183 18.022H131.214V34.022H134.597V23.9517H134.714L141.675 34.022H144.597V18.022Z" fill="white"/>
<g opacity="0.3">
<mask id="mask0" mask-type="alpha" maskUnits="userSpaceOnUse" x="0" y="0" width="183" height="52">
<rect width="182.398" height="51.1115" rx="25.5558" fill="#3200B8"/>
<path d="M180.394 25.556C180.394 38.5631 169.849 49.1074 156.842 49.1074H25.5557C12.5486 49.1074 2.00427 38.5631 2.00427 25.556C2.00427 12.549 12.5486 2.00464 25.5557 2.00464H156.842C169.849 2.00464 180.394 12.549 180.394 25.556Z" fill="url(#paint2_linear)"/>
<path d="M37.851 18.022L43.687 28.3657V34.022H47.0463V28.3657L52.8823 18.022H49.0932L45.4448 24.9126H45.2885L41.6401 18.022H37.851ZM68.4662 26.022C68.4662 20.7876 65.2162 17.8032 60.9741 17.8032C56.7084 17.8032 53.4819 20.7876 53.4819 26.022C53.4819 31.2329 56.7084 34.2407 60.9741 34.2407C65.2162 34.2407 68.4662 31.2563 68.4662 26.022ZM65.0366 26.022C65.0366 29.4126 63.4272 31.2485 60.9741 31.2485C58.5131 31.2485 56.9116 29.4126 56.9116 26.022C56.9116 22.6313 58.5131 20.7954 60.9741 20.7954C63.4272 20.7954 65.0366 22.6313 65.0366 26.022ZM80.8549 18.022V28.1235C80.8549 29.9517 79.5737 31.272 77.6049 31.272C75.644 31.272 74.3549 29.9517 74.3549 28.1235V18.022H70.9721V28.4126C70.9721 31.9126 73.6127 34.2485 77.6049 34.2485C81.5815 34.2485 84.2377 31.9126 84.2377 28.4126V18.022H80.8549ZM95.7143 34.022H99.0112L102.05 23.561H102.175L105.222 34.022H108.519L113.097 18.022H109.402L106.753 29.1626H106.613L103.699 18.022H100.535L97.6127 29.1392H97.4799L94.8315 18.022H91.1362L95.7143 34.022ZM128.708 26.022C128.708 20.7876 125.458 17.8032 121.216 17.8032C116.951 17.8032 113.724 20.7876 113.724 26.022C113.724 31.2329 116.951 34.2407 121.216 34.2407C125.458 34.2407 128.708 31.2563 128.708 26.022ZM125.279 26.022C125.279 29.4126 123.669 31.2485 121.216 31.2485C118.755 31.2485 117.154 29.4126 117.154 26.022C117.154 22.6313 118.755 20.7954 121.216 20.7954C123.669 20.7954 125.279 22.6313 125.279 26.022ZM144.597 18.022H141.23V28.0845H141.089L134.183 18.022H131.214V34.022H134.597V23.9517H134.714L141.675 34.022H144.597V18.022Z" fill="white"/>
</mask>
<g mask="url(#mask0)">
<rect x="42.959" y="-25.5449" width="22.0223" height="116.589" transform="rotate(33.4905 42.959 -25.5449)" fill="url(#paint3_linear)"/>
<rect x="144.003" y="-35.0269" width="56.389" height="116.589" transform="rotate(33.4905 144.003 -35.0269)" fill="url(#paint4_linear)"/>
<rect x="108.378" y="-21.6255" width="17.5647" height="116.589" transform="rotate(33.4905 108.378 -21.6255)" fill="url(#paint5_linear)"/>
</g>
</g>
<defs>
<filter id="filter0_b" x="-11.9961" y="-11.9956" width="206.389" height="75.1028" filterUnits="userSpaceOnUse" color-interpolation-filters="sRGB">
<feFlood flood-opacity="0" result="BackgroundImageFix"/>
<feGaussianBlur in="BackgroundImage" stdDeviation="7"/>
<feComposite in2="SourceAlpha" operator="in" result="effect1_backgroundBlur"/>
<feBlend mode="normal" in="SourceGraphic" in2="effect1_backgroundBlur" result="shape"/>
</filter>
<linearGradient id="paint0_linear" x1="2.00391" y1="2.00439" x2="39.5147" y2="100.48" gradientUnits="userSpaceOnUse">
<stop stop-color="#2DD3BF"/>
<stop offset="1" stop-color="#2DD3BF" stop-opacity="0"/>
</linearGradient>
<linearGradient id="paint1_linear" x1="-35.5768" y1="-1.38909" x2="-31.5263" y2="57.5105" gradientUnits="userSpaceOnUse">
<stop stop-color="white" stop-opacity="0.2"/>
<stop offset="1" stop-color="white" stop-opacity="0"/>
</linearGradient>
<linearGradient id="paint2_linear" x1="180.394" y1="49.1074" x2="142.883" y2="-49.3678" gradientUnits="userSpaceOnUse">
<stop stop-color="#6536F1"/>
<stop offset="1" stop-color="#2DD3BF" stop-opacity="0"/>
</linearGradient>
<linearGradient id="paint3_linear" x1="53.9702" y1="-25.5449" x2="53.9702" y2="91.0439" gradientUnits="userSpaceOnUse">
<stop stop-color="white"/>
<stop offset="1" stop-color="white" stop-opacity="0"/>
</linearGradient>
<linearGradient id="paint4_linear" x1="172.197" y1="-35.0269" x2="172.197" y2="81.562" gradientUnits="userSpaceOnUse">
<stop stop-color="white"/>
<stop offset="1" stop-color="white" stop-opacity="0"/>
</linearGradient>
<linearGradient id="paint5_linear" x1="117.16" y1="-21.6255" x2="117.16" y2="94.9633" gradientUnits="userSpaceOnUse">
<stop stop-color="white"/>
<stop offset="1" stop-color="white" stop-opacity="0"/>
</linearGradient>
</defs>
</svg>
