<svg width="55" height="71" viewBox="0 0 55 71" fill="none" xmlns="http://www.w3.org/2000/svg">
<g filter="url(#filter0_d)">
<path d="M47.323 2.33422C46.8628 2.08599 46.3462 1.97241 45.8285 2.00568C45.3108 2.03894 44.8117 2.21779 44.3846 2.52303L7.40561 29.0744C7.02775 29.3459 6.71896 29.7084 6.50569 30.1307C6.29241 30.553 6.18101 31.0227 6.18101 31.4994C6.18101 31.9762 6.29241 32.4459 6.50569 32.8682C6.71896 33.2905 7.02775 33.653 7.40561 33.9245L44.3846 60.4759C44.8113 60.7821 45.3107 60.9614 45.8287 60.9944C46.3467 61.0274 46.8635 60.9129 47.3232 60.6631C47.7829 60.4133 48.1679 60.0379 48.4366 59.5774C48.7053 59.117 48.8475 58.5891 48.8477 58.0508L48.8477 4.94806C48.8477 4.40954 48.7057 3.88128 48.4369 3.42052C48.1682 2.95976 47.7829 2.58409 47.323 2.33422Z" fill="#08111F"/>
<path d="M47.8004 1.45551L47.7978 1.45411C47.174 1.1176 46.4708 0.962345 45.7644 1.00774C45.0581 1.05312 44.3801 1.29705 43.8031 1.70945L43.8013 1.71073L6.82237 28.2621L6.82209 28.2623C6.31137 28.6293 5.89754 29.1166 5.61305 29.6799C5.32862 30.2432 5.18101 30.8673 5.18101 31.4994C5.18101 32.1315 5.32862 32.7557 5.61305 33.319C5.89754 33.8823 6.31137 34.3696 6.82209 34.7366L6.82237 34.7368L43.8013 61.2882L43.8015 61.2883C44.3787 61.7025 45.0577 61.9474 45.7651 61.9924C46.4727 62.0375 47.1768 61.8807 47.8006 61.5418C48.4241 61.203 48.9413 60.6966 49.3003 60.0815C49.6591 59.4666 49.8474 58.7646 49.8477 58.0512L49.8477 58.0508L49.8477 4.94822C49.8477 4.94816 49.8477 4.94811 49.8477 4.94806C49.8477 4.23427 49.6596 3.53189 49.3007 2.91666C48.9417 2.30114 48.4242 1.79439 47.8004 1.45551Z" stroke="#CACACA" stroke-width="2"/>
</g>
<defs>
<filter id="filter0_d" x="0.179688" y="0" width="54.6667" height="71" filterUnits="userSpaceOnUse" color-interpolation-filters="sRGB">
<feFlood flood-opacity="0" result="BackgroundImageFix"/>
<feColorMatrix in="SourceAlpha" type="matrix" values="0 0 0 0 0 0 0 0 0 0 0 0 0 0 0 0 0 0 127 0" result="hardAlpha"/>
<feOffset dy="4"/>
<feGaussianBlur stdDeviation="2"/>
<feComposite in2="hardAlpha" operator="out"/>
<feColorMatrix type="matrix" values="0 0 0 0 0 0 0 0 0 0 0 0 0 0 0 0 0 0 0.25 0"/>
<feBlend mode="normal" in2="BackgroundImageFix" result="effect1_dropShadow"/>
<feBlend mode="normal" in="SourceGraphic" in2="effect1_dropShadow" result="shape"/>
</filter>
</defs>
</svg>
