<svg width="56" height="71" viewBox="0 0 56 71" fill="none" xmlns="http://www.w3.org/2000/svg">
<g filter="url(#filter0_d)">
<path d="M8.05983 60.6658C8.51999 60.914 9.03663 61.0276 9.55431 60.9943C10.072 60.9611 10.5712 60.7822 10.9983 60.477L47.9774 33.9256C48.3553 33.6541 48.6641 33.2916 48.8773 32.8693C49.0906 32.447 49.202 31.9773 49.202 31.5006C49.202 31.0238 49.0906 30.5541 48.8773 30.1318C48.6641 29.7095 48.3553 29.347 47.9774 29.0755L10.9983 2.52413C10.5715 2.21788 10.0721 2.03855 9.55412 2.00555C9.03614 1.97255 8.51932 2.08714 8.05964 2.33691C7.59995 2.58669 7.2149 2.96212 6.94619 3.42257C6.67747 3.88302 6.53533 4.41094 6.53516 4.94916V58.0519C6.53507 58.5905 6.67711 59.1187 6.94587 59.5795C7.21464 60.0402 7.59988 60.4159 8.05983 60.6658Z" fill="#08111F"/>
<path d="M7.58248 61.5445L7.58506 61.5459C8.20887 61.8824 8.91207 62.0377 9.61844 61.9923C10.3247 61.9469 11.0027 61.703 11.5797 61.2906L11.5815 61.2893L48.5607 34.7379L48.5609 34.7377C49.0717 34.3707 49.4855 33.8834 49.77 33.3201C50.0544 32.7568 50.202 32.1327 50.202 31.5006C50.202 30.8685 50.0544 30.2443 49.77 29.681C49.4855 29.1177 49.0717 28.6304 48.5609 28.2634L48.5607 28.2632L11.5815 1.71183L11.5813 1.71168C11.0041 1.29751 10.3252 1.05265 9.6177 1.00757C8.91017 0.962498 8.206 1.1193 7.58221 1.45824C6.95877 1.79699 6.44147 2.30343 6.0825 2.91854C5.72368 3.5334 5.53539 4.23538 5.53516 4.94883V4.94916V58.0518C5.53516 58.0518 5.53516 58.0519 5.53516 58.0519C5.53507 58.7657 5.72322 59.4681 6.08209 60.0833C6.44112 60.6989 6.95867 61.2056 7.58248 61.5445Z" stroke="#CACACA" stroke-width="2"/>
</g>
<defs>
<filter id="filter0_d" x="0.535156" y="0" width="54.6669" height="71" filterUnits="userSpaceOnUse" color-interpolation-filters="sRGB">
<feFlood flood-opacity="0" result="BackgroundImageFix"/>
<feColorMatrix in="SourceAlpha" type="matrix" values="0 0 0 0 0 0 0 0 0 0 0 0 0 0 0 0 0 0 127 0" result="hardAlpha"/>
<feOffset dy="4"/>
<feGaussianBlur stdDeviation="2"/>
<feComposite in2="hardAlpha" operator="out"/>
<feColorMatrix type="matrix" values="0 0 0 0 0 0 0 0 0 0 0 0 0 0 0 0 0 0 0.25 0"/>
<feBlend mode="normal" in2="BackgroundImageFix" result="effect1_dropShadow"/>
<feBlend mode="normal" in="SourceGraphic" in2="effect1_dropShadow" result="shape"/>
</filter>
</defs>
</svg>
