<svg width="16" height="16" viewBox="0 0 16 16" fill="none" xmlns="http://www.w3.org/2000/svg">
<path d="M15.3427 9.28097C15.1192 9.21128 14.8773 9.2328 14.6696 9.34086C14.462 9.44892 14.3054 9.63474 14.2341 9.85782C13.8151 11.1397 12.9983 12.2544 11.9025 13.0397C10.8067 13.825 9.4891 14.2399 8.14137 14.2241C6.47438 14.2431 4.86791 13.5998 3.67423 12.4352C2.48055 11.2707 1.79709 9.67996 1.77372 8.0119C1.79709 6.34384 2.48055 4.75313 3.67423 3.58858C4.86791 2.42404 6.47438 1.78071 8.14137 1.79967C9.64688 1.79603 11.1061 2.32044 12.2653 3.28173L10.3408 2.96225C10.2254 2.94326 10.1075 2.94727 9.9937 2.97405C9.87992 3.00084 9.77255 3.04987 9.67777 3.11832C9.58299 3.18677 9.50266 3.2733 9.44142 3.37293C9.38017 3.47256 9.33921 3.58332 9.32089 3.69884C9.30191 3.81426 9.30592 3.93229 9.33269 4.04615C9.35946 4.16001 9.40845 4.26745 9.47686 4.3623C9.54527 4.45714 9.63173 4.53752 9.73129 4.59881C9.83085 4.6601 9.94154 4.70109 10.057 4.71942L13.8173 5.34064H13.968C14.0709 5.34052 14.1729 5.3225 14.2696 5.28739C14.302 5.27505 14.3321 5.25702 14.3582 5.23415C14.4218 5.21048 14.4816 5.17759 14.5356 5.13653L14.6154 5.0389C14.6154 4.99453 14.6953 4.95903 14.7307 4.90579C14.7662 4.85254 14.7307 4.81704 14.7751 4.78154C14.7996 4.72986 14.8203 4.67647 14.8372 4.6218L15.5023 1.07195C15.5244 0.955412 15.5234 0.835649 15.4993 0.719503C15.4751 0.603358 15.4284 0.493104 15.3617 0.395038C15.295 0.296973 15.2096 0.213015 15.1105 0.147958C15.0114 0.0829011 14.9004 0.0380198 14.7839 0.0158767C14.6675 -0.0062665 14.5478 -0.00523803 14.4317 0.0189034C14.3157 0.0430449 14.2055 0.0898265 14.1075 0.156577C13.9096 0.291386 13.7733 0.499351 13.7286 0.73472L13.4891 2.02154C12.0045 0.734046 10.1059 0.0251336 8.14137 0.0247513C6.00398 0.00581931 3.94638 0.836153 2.42007 2.33355C0.893754 3.83095 0.023405 5.8731 0 8.0119C0.023405 10.1507 0.893754 12.1928 2.42007 13.6902C3.94638 15.1876 6.00398 16.018 8.14137 15.999C9.87353 16.0257 11.5685 15.4951 12.9766 14.4854C14.3848 13.4756 15.4318 12.0402 15.9635 10.3903C15.9971 10.2767 16.0077 10.1575 15.9945 10.0397C15.9814 9.92192 15.9448 9.80797 15.8869 9.70458C15.8291 9.60118 15.7511 9.51043 15.6576 9.43767C15.5641 9.36492 15.4571 9.31164 15.3427 9.28097Z" fill="#C8C4C4"/>
</svg>
