<svg width="43" height="43" viewBox="0 0 43 43" fill="none" xmlns="http://www.w3.org/2000/svg">
<path d="M21.6257 42.7357C33.2499 42.7357 42.6732 33.3124 42.6732 21.6882C42.6732 10.0639 33.2499 0.640625 21.6257 0.640625C10.0014 0.640625 0.578125 10.0639 0.578125 21.6882C0.578125 33.3124 10.0014 42.7357 21.6257 42.7357Z" fill="url(#paint0_linear)"/>
<path d="M12.1476 6.91604C12.0848 6.81836 12.0166 6.72423 11.9434 6.63408C11.6003 6.25523 11.5979 6.25603 12.0697 6.00584C12.5193 5.76756 12.9768 5.54438 13.3945 5.25051C13.6892 5.20603 13.9267 5.02415 14.1538 4.8653C14.4453 4.66197 14.5565 4.77952 14.6598 5.0313C14.7479 5.08769 14.7741 5.18379 14.8131 5.26957C14.9024 5.56423 15.0084 5.85354 15.1307 6.1361C15.2896 6.6055 15.4421 7.07728 15.6073 7.54509C15.7272 7.94221 15.8646 8.32901 15.9965 8.71977C16.033 8.88895 16.141 9.03748 16.1236 9.22413C15.8059 9.56089 15.3674 9.68876 14.9632 9.87064C14.8043 9.94133 14.682 9.82299 14.5946 9.70464C14.3738 9.40442 14.0974 9.1582 13.8409 8.89372C13.6455 8.58317 13.3183 8.37508 13.1682 8.02878C12.9299 7.71664 12.6861 7.40451 12.3739 7.15511C12.3229 7.05538 12.2444 6.9724 12.1476 6.91604Z" fill="#FEFEFE"/>
<path d="M17.857 4.87109C17.857 6.081 17.857 7.29011 17.857 8.49842L17.8252 8.54369C17.6219 8.92077 17.3868 8.71367 17.1636 8.78912C17.1163 8.79892 17.0672 8.79678 17.0209 8.78291C16.9746 8.76905 16.9325 8.74389 16.8983 8.7097C16.8713 8.68185 16.8475 8.65092 16.8276 8.61756C16.633 8.15848 16.4893 7.68034 16.2891 7.22365C16.1541 6.78682 15.9579 6.37302 15.8007 5.94492C15.7776 5.89647 15.8078 5.95524 15.7856 5.90759C15.5052 5.30237 15.5052 5.30237 16.1883 5.14273C16.5322 5.08634 16.8642 4.97673 17.2065 4.9124C17.3447 4.88698 17.4861 4.84965 17.6243 4.9124L17.857 4.87109Z" fill="#FDFEFE"/>
<path d="M11.3419 10.3197C11.1521 10.1696 10.8812 10.245 10.6954 10.0862C10.5786 10.0107 10.4293 10.0067 10.3181 9.91937C10.1553 9.70095 10.4198 9.612 10.4587 9.45474C10.5294 9.34036 10.6247 9.24505 10.697 9.13227L10.7764 9.05284C10.9869 8.97342 11.0147 8.75262 11.1155 8.59059C11.1362 8.5909 11.1565 8.5848 11.1735 8.57312C11.2577 8.47225 11.3324 8.36661 11.4213 8.26733V8.2729C11.5762 8.0791 11.7295 8.1204 11.882 8.2729C12.2084 8.37218 12.4165 8.62871 12.6484 8.85349C12.7801 8.99803 12.9274 9.12751 13.0876 9.2395C13.1855 9.3175 13.2783 9.40158 13.3656 9.49127C13.4943 9.63748 13.6411 9.76666 13.8025 9.87568C13.848 9.90663 13.8905 9.94173 13.9295 9.98053C14.0185 10.0774 14.1122 10.1727 14.0669 10.3236C13.978 10.4523 13.816 10.4682 13.7032 10.5619C13.6375 10.6042 13.5756 10.652 13.5181 10.7049C13.3037 10.9368 13.0964 11.0877 12.766 10.8637C12.5912 10.743 12.353 10.7144 12.1433 10.6437C11.899 10.4861 11.6271 10.3761 11.3419 10.3197Z" fill="#FEFEFE"/>
<path d="M37.852 12.7436C37.6873 12.3465 37.5232 11.9494 37.3596 11.5523C37.2598 11.4651 37.1845 11.3534 37.1411 11.2282C37.0832 11.1417 37.0148 11.0757 36.9029 11.098C36.752 11.1424 36.7504 11.3021 36.6693 11.4006C36.5105 11.6015 36.3628 11.8136 36.188 12.0018C35.2294 13.1988 33.922 13.3417 32.4503 13.2472C32.7179 12.9814 32.9681 12.6986 33.1993 12.4005C33.2787 12.2615 33.4042 12.1527 33.455 11.9963C33.4592 11.9545 33.4506 11.9124 33.4304 11.8755C33.3955 11.8362 33.3519 11.8055 33.3031 11.7859C33.2543 11.7663 33.2016 11.7584 33.1492 11.7628C32.4098 11.7691 31.7045 11.5523 30.9825 11.4395C30.9235 11.433 30.8651 11.4221 30.8078 11.4069C30.6674 11.3827 30.5286 11.3495 30.3924 11.3077C30.2208 11.2449 29.9873 11.2846 29.9158 11.0384C29.9158 11.0209 29.9103 11.0035 29.9071 10.9868C29.9632 10.8279 30.0199 10.9207 30.0771 10.515C30.1311 10.3037 30.1859 10.0917 30.2407 9.8796C30.2936 9.58731 30.3466 9.29609 30.3995 9.00592C30.4734 8.84707 30.5028 8.69617 30.2796 8.62786C29.9405 8.64692 29.6323 8.79862 29.3011 8.85263C29.167 8.89318 29.0274 8.913 28.8873 8.9114C28.8275 8.91609 28.7683 8.92593 28.7102 8.9408C28.5568 8.98029 28.3979 8.99424 28.24 8.98209C28.1415 8.98315 28.0433 8.99379 27.9469 9.01386C27.8074 9.05655 27.6613 9.07377 27.5156 9.0647C27.2988 9.03293 27.4314 8.90584 27.4449 8.81212C27.4833 8.70127 27.5026 8.58473 27.5021 8.46742C27.5502 8.25746 27.5739 8.04266 27.5728 7.82726C27.5728 7.42379 27.5728 7.01951 27.5728 6.61524C27.5728 6.47386 27.5935 6.31342 27.3774 6.30469L27.2241 6.39999C26.9064 6.45797 26.719 6.72882 26.4601 6.8829C26.2107 7.05525 25.9994 7.28003 25.7278 7.42061C25.6971 7.43908 25.6676 7.4595 25.6396 7.48176C25.5031 7.59441 25.3495 7.68451 25.1845 7.74863C24.9232 7.84077 24.7437 8.0846 24.4633 8.14576C23.8192 8.41977 23.2203 8.80974 22.5095 8.91538C22.3506 8.94874 22.1918 8.98687 22.0329 9.02022C21.8709 9.06159 21.7027 9.07342 21.5365 9.05517C21.3368 9.04721 21.1368 9.05839 20.9392 9.08853C20.589 9.18384 20.2308 9.11791 19.8773 9.14333C19.8121 9.14566 19.7474 9.15525 19.6843 9.17192C19.5255 9.23149 19.3587 9.21878 19.1951 9.23228C18.2912 9.40305 17.4652 9.77554 16.6598 10.2029C16.3604 10.3776 16.0244 10.4935 15.7861 10.7636C15.6583 10.8518 15.5113 10.9058 15.3835 10.9947L14.6774 11.5007C14.5742 11.6352 14.4327 11.7354 14.2715 11.7882C14.0984 11.8676 14.0332 12.094 13.8228 12.1225C13.6862 12.2512 13.6099 12.4402 13.4256 12.5197L13.1016 12.8517C12.7839 13.0899 12.6647 13.5109 12.3026 13.7055C12.2722 13.7251 12.2433 13.7469 12.216 13.7706C12.0817 13.8926 11.9265 13.9892 11.7577 14.0557C11.3394 14.2861 10.8952 14.4658 10.4345 14.5911C10.0779 14.7229 9.69981 14.7896 9.3424 14.9135C8.514 15.2011 7.76979 15.0351 7.06449 14.5641C6.93542 14.4956 6.81559 14.411 6.70787 14.3123C6.67987 14.2893 6.65042 14.268 6.61971 14.2488C6.27952 13.9779 5.9717 13.6688 5.70235 13.3274C5.68277 13.2975 5.66128 13.2688 5.63802 13.2416C5.57147 13.1599 5.49785 13.0841 5.41801 13.0153C5.40133 13.0105 5.38545 13.0042 5.36877 12.9986C5.25757 12.8985 5.20992 12.9986 5.14876 13.0661C5.14241 13.5427 5.13579 14.0192 5.12891 14.4958L5.2266 15.2106C5.3039 15.5013 5.38148 15.7925 5.45931 16.0843C5.39418 16.4401 5.63246 16.7149 5.71506 17.031C5.90251 17.363 5.99067 17.7593 6.33458 17.9904C6.49343 18.1493 6.63957 18.3161 6.81113 18.4606C7.76025 19.27 8.88968 19.4209 10.0787 19.3343C10.5552 19.3002 10.56 19.2946 10.5306 19.7664C10.5192 19.8433 10.5009 19.9191 10.4758 19.9927C10.4758 20.1516 10.4949 20.316 10.3964 20.459L10.3519 20.4923C10.2836 20.6819 10.2305 20.8766 10.193 21.0745C10.1883 21.1643 10.2097 21.2572 10.1589 21.3414C10.1559 21.49 10.1024 21.6331 10.0072 21.7472C9.83563 21.8672 9.82371 22.0872 9.69902 22.2357C9.65957 22.2945 9.62831 22.3583 9.60609 22.4255C9.58755 22.5606 9.52857 22.6868 9.43692 22.7877C9.31467 22.9408 9.2122 23.1086 9.13192 23.2873C9.09996 23.4425 9.02319 23.585 8.91112 23.6971C8.88607 23.7222 8.86247 23.7487 8.84043 23.7765C8.73641 23.9138 8.64647 24.0612 8.57198 24.2166C8.54259 24.2777 8.51479 24.3389 8.49255 24.4024C8.45204 24.5358 8.34959 24.628 8.27095 24.736C8.15967 24.9183 8.03517 25.0922 7.89845 25.2562C7.81267 25.4151 7.68004 25.5334 7.57043 25.9208C7.55136 25.7019 7.53615 25.7353 7.52516 25.7701C7.47274 25.9909 7.63079 26.0084 7.77773 26.0211C8.07996 26.0534 8.38485 25.9924 8.6514 25.8464C8.73639 25.8011 8.82375 25.6486 8.95878 25.7765C8.93051 26.0463 8.87435 26.3125 8.79119 26.5707C8.60692 26.9575 8.68158 27.3729 8.65537 27.778C8.57198 28.5611 8.32655 29.3339 8.49652 30.1345V30.3545H8.49176C8.58144 30.4541 8.65537 30.5669 8.71097 30.6889C8.74442 30.7184 8.77057 30.7553 8.78738 30.7966C8.80419 30.838 8.8112 30.8827 8.80787 30.9272C8.75465 31.1249 8.94369 31.1519 9.03423 31.2448L9.33922 31.642C9.48298 31.7945 9.66725 31.912 9.75382 32.1185L9.91267 32.2774C10.4527 32.7478 11.0214 33.1841 11.6155 33.5839C11.7068 33.636 11.7902 33.7007 11.8633 33.7761C12.0627 33.9072 12.3161 33.9294 12.5027 34.0867C12.9173 34.317 13.3216 34.5719 13.8029 34.6482L15.312 35.2892C15.4611 35.3969 15.624 35.484 15.7965 35.5481C16.6956 35.8952 17.6455 35.9841 18.5875 36.0246C20.7637 36.1192 22.8526 35.6585 24.8747 34.8761C25.2973 34.7236 25.7083 34.5404 26.1042 34.3281C26.3425 34.1939 26.4259 34.255 26.4601 34.5076C26.5395 35.0969 26.831 35.5941 27.1662 36.0699L27.4298 35.7522C27.4414 35.7039 27.4625 35.6584 27.4918 35.6183C27.5211 35.5782 27.5581 35.5444 27.6006 35.5187C27.8389 35.143 28.1566 34.8436 28.4814 34.545L28.7197 34.3067C28.745 34.3111 28.771 34.31 28.7958 34.3034C28.8206 34.2968 28.8437 34.2849 28.8635 34.2685C28.9163 34.2259 28.9664 34.18 29.0136 34.1311C29.0747 34.07 29.1375 34.0112 29.1994 33.9516C29.5227 33.6212 29.873 33.3162 30.1525 32.9437L30.2963 32.8127C30.6739 32.4197 31.0766 32.0517 31.502 31.7111C31.9179 31.2821 32.3621 30.8815 32.8315 30.5118L33.5464 29.7175C33.7174 29.3495 33.8884 28.9815 34.0594 28.6135C34.1124 28.3212 34.1653 28.03 34.2183 27.7398C34.321 27.3837 34.3467 27.0098 34.2937 26.643C34.2715 26.5397 34.2429 26.4389 34.2294 26.334C34.2215 26.2538 34.2083 26.1742 34.1897 26.0957C34.1762 26.0401 34.1587 25.9845 34.1468 25.9282C34.1349 25.8528 34.1181 25.7782 34.0968 25.705C33.9888 25.3078 33.9888 25.319 34.3732 25.3031C34.7068 25.2896 35.0467 25.3634 35.3731 25.2403C35.3882 25.2283 35.4007 25.2132 35.4097 25.1962C35.4187 25.1791 35.4241 25.1603 35.4256 25.1411C35.2024 24.6184 34.8982 24.1347 34.6877 23.6058C34.6289 23.458 34.5717 23.3095 34.4256 23.2206C34.2542 22.9556 34.1229 22.6668 34.0356 22.3636C33.9872 22.0459 33.8275 21.7647 33.7179 21.4685C33.656 21.3549 33.5996 21.2389 33.5456 21.1214C33.4304 20.8895 33.3526 20.6448 33.2326 20.4066C33.0364 19.953 32.7863 19.5218 32.6512 19.0404C32.6767 18.8522 32.8466 18.8403 32.9737 18.7958C33.4225 18.637 33.8585 18.4479 34.2953 18.2613C34.4605 18.1906 34.6512 18.1453 34.7393 17.9571L36.2579 17.0111C36.5756 16.8356 36.9044 16.6728 37.0434 16.2963C37.3024 15.9111 37.5883 15.5418 37.7583 15.105C37.7756 14.8868 37.826 14.6726 37.9076 14.4696C37.9211 14.3671 37.9354 14.2638 37.9489 14.1614C37.9569 13.6869 37.9245 13.2126 37.852 12.7436ZM28.6665 22.1007C28.9201 22.1141 28.9207 22.1282 28.6684 22.1419C28.6661 22.1556 28.6608 22.1686 28.653 22.1801L28.6458 22.4764C28.6458 22.7512 28.6768 23.0276 28.5728 23.292C28.6045 23.3913 28.4933 23.489 28.5728 23.5883C28.5799 23.7845 28.5894 23.9854 28.5148 24.1689C28.4941 24.2205 28.4584 24.2722 28.4211 24.1792C28.4118 24.1416 28.4086 24.1027 28.4115 24.0641C28.2209 23.6177 28.0306 23.1711 27.8405 22.7242C27.7302 22.6399 27.641 22.5311 27.58 22.4065H27.3949C27.3949 22.5494 27.4187 22.698 27.3099 22.8195L27.1399 23.1936C27.1113 23.9201 26.908 24.0871 26.6737 24.4914C26.5736 24.8154 26.3949 25.0537 26.028 25.0886C23.9907 25.7423 21.9162 26.0592 19.7765 25.7661C19.3722 25.7113 18.9695 25.6263 18.5636 25.6073C18.1578 25.5882 17.9139 25.3809 17.7638 25.0283C17.6555 24.918 17.5739 24.7843 17.5256 24.6375C17.4067 24.5296 17.3236 24.388 17.2873 24.2316C16.9676 23.7535 16.7559 23.2114 16.667 22.6431C16.6487 22.5272 16.6717 22.3985 16.4978 22.3945C16.0269 22.7605 15.649 23.2324 15.3946 23.7718C15.3152 24.1363 15.2079 24.4961 15.1928 24.9917C14.7242 24.3563 14.3732 23.7956 14.1818 23.1419C14.0883 23.0247 14.0354 22.8804 14.0309 22.7305C13.895 22.4574 13.8125 22.1609 13.7878 21.8568C13.4804 20.8243 13.5781 19.7696 13.6893 18.7212C13.7402 18.2446 13.7727 17.7482 14.0229 17.3114C14.0236 17.2464 14.0382 17.1824 14.0656 17.1235C14.0929 17.0646 14.1326 17.0122 14.1818 16.9698L14.2787 16.8364C14.5709 16.2439 15.1047 15.954 15.6821 15.7189C16.277 15.3655 16.9434 15.1963 17.5883 14.9818C18.7892 14.5847 20.0004 14.2249 21.2522 14.0192C21.408 13.9929 21.5653 13.9757 21.7232 13.9676C22.6103 13.9271 22.7612 14.047 22.9145 14.9405C22.959 15.1995 22.9749 15.4632 23.0098 15.7237C23.0257 15.8436 22.9662 16.0032 23.1568 16.0414L23.3704 15.873C23.8573 15.433 24.3767 15.0184 24.6174 14.2805C25.0257 14.8611 25.4371 15.3591 25.7039 15.958C25.9009 16.1248 25.997 16.3622 26.0645 16.5934C26.1511 16.8849 26.2694 16.9047 26.4823 16.7355C26.7067 16.4496 26.8968 16.1382 27.0486 15.8079C27.0558 15.7332 27.0526 15.6164 27.1677 15.6895C27.2948 15.7689 27.4251 15.8698 27.4433 16.0453C27.7491 16.4027 28.0414 16.7681 28.1812 17.2296C28.263 17.3188 28.3115 17.4335 28.3186 17.5544C28.4148 17.6954 28.4698 17.8604 28.4775 18.031C28.6492 18.4875 28.7301 18.9731 28.7157 19.4606C28.7157 19.7513 28.7157 20.042 28.7157 20.3343C28.7229 20.9252 28.7697 21.5169 28.6665 22.1007Z" fill="#FEFEFE"/>
<path d="M16.8283 18.0646C16.794 18.0532 16.7612 18.0378 16.7306 18.0186C16.6655 17.9866 16.5987 17.9582 16.5305 17.9336C16.4725 17.9336 16.4137 17.9646 16.3549 18.0615C16.3248 18.0991 16.2883 18.1311 16.2469 18.156C16.1119 18.7675 16.015 19.3831 16.0785 20.0137C16.1384 20.1996 16.1974 20.3849 16.2557 20.5697C16.4484 20.8675 16.6901 21.1307 16.9705 21.3481C17.3319 21.5224 17.7126 21.6536 18.1047 21.7388C18.586 21.7563 19.0665 21.7595 19.5478 21.7555C19.7412 21.7184 19.9311 21.6653 20.1157 21.5967C20.4033 21.4151 20.6697 21.202 20.9099 20.9613C20.9332 20.8637 20.9925 20.7786 21.0759 20.723C21.145 20.5641 21.2118 20.4053 21.2832 20.2528C21.3547 20.1003 21.3627 19.974 21.2261 19.8604C21.1979 19.8676 21.1683 19.8661 21.141 19.856C21.1138 19.846 21.0902 19.8278 21.0736 19.804L18.937 18.9177L18.0411 18.5301C17.7345 18.5896 17.4796 18.5102 17.2945 18.2465L17.2699 18.233L17.2318 18.2171C17.1214 18.2076 17.0301 18.1282 16.9244 18.102C16.8917 18.0914 16.8596 18.0789 16.8283 18.0646Z" fill="#FEFEFE"/>
<path d="M27.1232 18.9788C27.1351 18.7063 27.0263 18.5681 26.7705 18.5332C26.4701 18.6737 26.1518 18.7724 25.8246 18.8263C24.8461 19.163 23.8858 19.5562 22.8708 19.7794H22.8612C22.646 19.8588 22.5547 19.9819 22.7119 20.2083C22.7775 20.3207 22.8335 20.4384 22.8795 20.5601C22.9608 20.6165 23.0176 20.7017 23.0384 20.7984C23.2825 21.0867 23.5521 21.3525 23.8437 21.5926L24.0987 21.738C24.5244 21.8039 24.9509 21.9072 25.3695 21.6967C25.6332 21.5664 25.8564 21.3385 26.1828 21.3607C26.1741 21.3404 26.1722 21.3179 26.1773 21.2964C26.1825 21.2749 26.1944 21.2557 26.2114 21.2416C26.5211 20.9596 26.7245 20.5895 27.016 20.2941C27.0214 20.2891 27.0272 20.2845 27.0334 20.2805C26.9651 20.028 27.0628 19.8199 27.2288 19.6301C27.062 19.4299 27.1129 19.1948 27.1232 18.9788Z" fill="#FEFEFE"/>
<defs>
<linearGradient id="paint0_linear" x1="21.6257" y1="42.3259" x2="21.6257" y2="0.626328" gradientUnits="userSpaceOnUse">
<stop stop-color="#1550C1"/>
<stop offset="1" stop-color="#79D8F1"/>
</linearGradient>
</defs>
</svg>
