<svg width="94" height="67" viewBox="0 0 94 67" fill="none" xmlns="http://www.w3.org/2000/svg">
<path d="M0 0H94V47C94 57.8156 85.2322 66.5833 74.4167 66.5833H19.5833C8.76776 66.5833 0 57.8156 0 47V0Z" fill="#0F6CCB"/>
<path d="M35.0972 45V30.908H40.1412V27.658H26.3092V30.908H31.3792V45H35.0972ZM45.7149 45.312C49.8749 45.312 52.3709 42.296 52.3709 38.708C52.3709 35.146 49.8749 32.13 45.7149 32.13C41.5809 32.13 39.0849 35.146 39.0849 38.708C39.0849 42.296 41.5809 45.312 45.7149 45.312ZM45.7149 42.374C43.6609 42.374 42.5169 40.684 42.5169 38.708C42.5169 36.758 43.6609 35.068 45.7149 35.068C47.7689 35.068 48.9389 36.758 48.9389 38.708C48.9389 40.684 47.7689 42.374 45.7149 42.374ZM61.9966 45.312C65.2206 45.312 67.5606 42.894 67.5606 38.708C67.5606 34.522 65.2206 32.13 61.9966 32.13C60.4626 32.13 59.0846 32.806 58.1226 34.028V32.442H54.8206V49.784H58.1226V43.388C59.1366 44.688 60.5146 45.312 61.9966 45.312ZM60.9566 42.374C59.8906 42.374 58.6686 41.724 58.1226 40.944V36.498C58.6686 35.692 59.8906 35.068 60.9566 35.068C62.8546 35.068 64.1286 36.55 64.1286 38.708C64.1286 40.892 62.8546 42.374 60.9566 42.374Z" fill="white"/>
<path d="M56.477 22.3721C56.5575 22.2299 56.5953 22.0695 56.5862 21.9081C56.5772 21.7466 56.5216 21.5902 56.4255 21.4557L48.0658 9.80829C47.9803 9.68927 47.8656 9.59134 47.7315 9.52288C47.5974 9.45441 47.448 9.41746 47.2959 9.41518C47.1438 9.4129 46.9936 9.44536 46.8583 9.50978C46.7229 9.5742 46.6064 9.66867 46.5186 9.78509L37.9383 21.1785C37.8394 21.31 37.7807 21.4647 37.7686 21.6259C37.7565 21.7871 37.7915 21.9487 37.8698 22.0931C37.9481 22.2375 38.0668 22.3592 38.2128 22.4452C38.3589 22.5311 38.5269 22.5779 38.6986 22.5805L55.6386 22.8346C55.8104 22.8372 55.9793 22.7954 56.1271 22.7139C56.2749 22.6324 56.3959 22.5142 56.477 22.3721Z" fill="white"/>
</svg>
