<svg width="17" height="12" viewBox="0 0 17 12" fill="none" xmlns="http://www.w3.org/2000/svg">
<path d="M0.0969853 0.427364C0.0258461 0.555761 -0.00920236 0.700178 0.00283042 0.845114C0.0123632 0.99005 0.0636167 1.13003 0.151096 1.25004L7.76052 11.6407C7.83834 11.7469 7.94221 11.8338 8.06325 11.8942C8.18429 11.9545 8.31889 11.9864 8.45552 11.9872C8.59215 11.9879 8.72675 11.9575 8.84779 11.8984C8.96883 11.8394 9.0727 11.7535 9.15052 11.6482L16.7599 1.34007C16.8477 1.22111 16.8991 1.08162 16.9086 0.939207C16.918 0.791791 16.8852 0.646972 16.8136 0.517931C16.742 0.388889 16.6344 0.280542 16.5025 0.204622C16.3705 0.128701 16.2192 0.0881001 16.0649 0.0872149L0.846091 0.00471178C0.691757 0.00385117 0.540361 0.0427825 0.408312 0.117286C0.276262 0.19179 0.168598 0.299023 0.0969853 0.427364Z" fill="#2C94FF"/>
</svg>
