<svg width="186" height="186" viewBox="0 0 186 186" fill="none" xmlns="http://www.w3.org/2000/svg">
<circle cx="93" cy="93" r="92" fill="url(#paint0_linear)" fill-opacity="0.1" stroke="url(#paint1_linear)" stroke-width="2"/>
<path d="M93 178C139.944 178 178 139.944 178 93C178 46.0558 139.944 8 93 8C46.0558 8 8 46.0558 8 93C8 139.944 46.0558 178 93 178Z" fill="url(#paint2_linear)"/>
<path d="M18.2078 133.476L134.709 18.9109C130.485 16.4471 125.91 14.5113 121.334 12.7515L12.4004 119.925C13.9842 124.677 15.9201 129.077 18.2078 133.476Z" fill="white" fill-opacity="0.3"/>
<path d="M93 8C46.0124 8 8 46.0124 8 93C8 95.6398 8.17598 98.1035 8.35197 100.567L102.151 8.52795C99.1594 8.17598 96.1677 8 93 8Z" fill="white" fill-opacity="0.5"/>
<path d="M161.816 93.0015C161.816 54.9975 131.008 24.1891 93.0038 24.1891C54.9998 24.1891 24.1914 54.9975 24.1914 93.0015C24.1914 131.006 54.9998 161.814 93.0038 161.814C131.008 161.814 161.816 131.006 161.816 93.0015Z" fill="#FF8C64"/>
<path d="M161.81 93.0002C161.81 68.3625 148.787 46.7165 129.429 34.5737C120.63 30.5261 110.775 28.2383 100.392 28.2383C62.3791 28.2383 31.582 59.0354 31.582 97.0478C31.582 121.685 44.6048 143.331 63.963 155.474C72.7622 159.522 82.6172 161.81 93.0003 161.81C131.013 161.81 161.81 131.013 161.81 93.0002Z" fill="url(#paint3_linear)"/>
<path d="M150.371 55.1636C157.586 66.0745 161.81 79.0973 161.81 93C161.81 131.012 131.013 161.81 93.0002 161.81C70.8263 161.81 51.1161 151.251 38.4453 134.884C50.7642 153.538 71.8822 165.681 95.8159 165.681C133.828 165.681 164.625 134.884 164.625 97.0476C164.625 81.2091 159.346 66.7785 150.371 55.1636Z" fill="white" fill-opacity="0.2"/>
<g style="mix-blend-mode:overlay">
<path d="M97.2226 8.17598C95.8147 8 94.4069 8 92.999 8C91.5911 8 90.1833 8 88.7754 8.17598V12.9275H97.0466V8.17598H97.2226Z" fill="white"/>
<path d="M61.6737 19.0871L69.417 16.2714L67.8331 11.6958C65.1934 12.5757 62.5536 13.4556 60.0898 14.5115L61.6737 19.0871Z" fill="white"/>
<path d="M125.909 14.6873C123.445 13.6314 120.806 12.7515 118.166 11.8716L116.582 16.2712L124.325 19.0869L125.909 14.6873Z" fill="white"/>
<path d="M38.2691 34.2217L44.6045 28.9422L41.6127 25.2466C39.325 27.0064 37.2132 28.7663 35.2773 30.5261L38.2691 34.2217Z" fill="white"/>
<path d="M164.448 129.428L160.225 136.644L164.272 138.931C165.856 136.644 167.088 134.18 168.496 131.716L164.448 129.428Z" fill="white"/>
<path d="M41.6127 160.753L44.6045 157.058L38.2691 151.778L35.2773 155.474C37.2132 157.234 39.325 158.994 41.6127 160.753Z" fill="white"/>
<path d="M168.672 54.1079C167.44 51.6441 166.032 49.1804 164.448 46.8926L160.4 49.1804L164.624 56.3957L168.672 54.1079Z" fill="white"/>
<path d="M172.718 102.855L171.311 110.95L176.062 111.83C176.59 109.19 177.118 106.375 177.47 103.559L172.718 102.855Z" fill="white"/>
<path d="M171.137 75.0496L172.545 83.1448L177.12 82.2649C176.768 79.4491 176.24 76.8094 175.712 73.9937L171.137 75.0496Z" fill="white"/>
<path d="M14.8625 110.95L13.2787 102.855L8.70312 103.735C9.05509 106.551 9.58304 109.19 10.111 112.006L14.8625 110.95Z" fill="white"/>
<path d="M13.2789 83.1451L14.6868 75.0498L9.93521 74.1699C9.40726 76.8097 8.87931 79.6254 8.52734 82.4411L13.2789 83.1451Z" fill="white"/>
<path d="M21.5496 56.5715L25.7732 49.3561L21.7256 47.0684C20.1417 49.3561 18.9098 51.8199 17.502 54.2837L21.5496 56.5715Z" fill="white"/>
<path d="M69.417 169.729L61.6737 166.913L60.0898 171.313C62.5536 172.369 65.1934 173.248 67.8331 174.128L69.417 169.729Z" fill="white"/>
<path d="M17.3262 131.892C18.5581 134.356 19.9659 136.82 21.5498 139.107L25.5974 136.82L21.5498 129.428L17.3262 131.892Z" fill="white"/>
<path d="M124.325 166.913L116.582 169.729L118.166 174.128C120.806 173.248 123.445 172.369 125.909 171.313L124.325 166.913Z" fill="white"/>
<path d="M144.386 25.2466L141.395 28.9422L147.73 34.2217L150.722 30.5261C148.786 28.7663 146.674 27.0064 144.386 25.2466Z" fill="white"/>
<path d="M97.2224 177.824V173.072H88.9512V177.824C90.359 177.824 91.7669 178 93.1748 178C94.4067 178 95.8145 178 97.2224 177.824Z" fill="white"/>
<path d="M147.73 151.778L141.395 157.058L144.386 160.753C146.674 158.994 148.786 157.234 150.722 155.474L147.73 151.778Z" fill="white"/>
</g>
<path d="M106.483 88.5048C101.965 80.1933 97.3835 71.8817 92.802 63.4887V63.4072C92.802 63.4072 92.802 63.4072 92.802 63.4887C92.802 63.4887 92.802 63.4887 92.802 63.4072V63.4887C88.2205 71.8817 83.6389 80.1933 79.121 88.5048C70.2125 83.7787 61.3675 79.0525 52.459 74.3263C56.9769 87.4455 61.5584 100.565 66.0763 113.684C74.794 113.684 83.5753 113.684 92.2929 113.684C92.6111 113.684 92.9293 113.684 93.3111 113.684C102.029 113.684 110.81 113.684 119.528 113.684C124.046 100.565 128.627 87.4455 133.145 74.3263C124.236 79.0525 115.392 83.7787 106.483 88.5048Z" fill="white"/>
<path d="M117.404 123.415H68.1997C67.1273 123.415 66.2441 122.316 66.2441 120.982C66.2441 119.648 67.1273 118.549 68.1997 118.549H117.404C118.476 118.549 119.359 119.648 119.359 120.982C119.296 122.316 118.476 123.415 117.404 123.415Z" fill="white" fill-opacity="0.6"/>
<defs>
<linearGradient id="paint0_linear" x1="93" y1="0" x2="93" y2="186" gradientUnits="userSpaceOnUse">
<stop stop-color="#FFE669"/>
<stop offset="0.461458" stop-color="#FF8C64"/>
<stop offset="1" stop-color="#FF6464"/>
</linearGradient>
<linearGradient id="paint1_linear" x1="93" y1="0" x2="93" y2="186" gradientUnits="userSpaceOnUse">
<stop stop-color="#FFE669"/>
<stop offset="0.461458" stop-color="#FF8C64"/>
<stop offset="1" stop-color="#FF6464"/>
</linearGradient>
<linearGradient id="paint2_linear" x1="93" y1="8" x2="93" y2="178" gradientUnits="userSpaceOnUse">
<stop stop-color="#FFE669"/>
<stop offset="0.461458" stop-color="#FF8C64"/>
<stop offset="1" stop-color="#FF6464"/>
</linearGradient>
<linearGradient id="paint3_linear" x1="96.6959" y1="28.2383" x2="96.6959" y2="161.81" gradientUnits="userSpaceOnUse">
<stop stop-color="#FFE669"/>
<stop offset="0.461458" stop-color="#FF8C64"/>
<stop offset="1" stop-color="#FF6464"/>
</linearGradient>
</defs>
</svg>
