<svg width="186" height="186" viewBox="0 0 186 186" fill="none" xmlns="http://www.w3.org/2000/svg">
<circle cx="93" cy="93" r="92" fill="url(#paint0_linear)" fill-opacity="0.1" stroke="url(#paint1_linear)" stroke-width="2"/>
<path d="M93 178C139.944 178 178 139.944 178 93C178 46.0558 139.944 8 93 8C46.0558 8 8 46.0558 8 93C8 139.944 46.0558 178 93 178Z" fill="url(#paint2_linear)"/>
<path d="M18.2059 133.476L134.707 18.9109C130.483 16.4471 125.908 14.5113 121.332 12.7515L12.3984 119.925C13.9823 124.677 15.9181 129.076 18.2059 133.476Z" fill="white" fill-opacity="0.3"/>
<path d="M93 8C46.0124 8 8 46.0124 8 93C8 95.6397 8.17598 98.1035 8.35197 100.567L102.151 8.52795C99.1594 8.17598 96.1677 8 93 8Z" fill="white" fill-opacity="0.5"/>
<path d="M161.818 93.0015C161.818 54.9975 131.01 24.1891 93.0058 24.1891C55.0017 24.1891 24.1934 54.9975 24.1934 93.0016C24.1934 131.006 55.0017 161.814 93.0058 161.814C131.01 161.814 161.818 131.006 161.818 93.0015Z" fill="#3EBAC7"/>
<path d="M161.81 93.0002C161.81 68.3625 148.787 46.7165 129.429 34.5737C120.63 30.5261 110.775 28.2383 100.392 28.2383C62.3791 28.2383 31.582 59.0354 31.582 97.0478C31.582 121.685 44.6048 143.331 63.963 155.474C72.7621 159.522 82.6172 161.81 93.0002 161.81C131.013 161.81 161.81 131.013 161.81 93.0002Z" fill="url(#paint3_linear)"/>
<path d="M150.371 55.1636C157.586 66.0745 161.81 79.0973 161.81 93C161.81 131.012 131.013 161.81 93.0001 161.81C70.8262 161.81 51.1161 151.25 38.4453 134.884C50.7641 153.538 71.8821 165.681 95.8159 165.681C133.828 165.681 164.625 134.884 164.625 97.0476C164.625 81.2091 159.346 66.7785 150.371 55.1636Z" fill="white" fill-opacity="0.2"/>
<g style="mix-blend-mode:overlay">
<path d="M97.2226 8.17598C95.8147 8 94.4069 8 92.999 8C91.5911 8 90.1833 8 88.7754 8.17598V12.9275H97.0466V8.17598H97.2226Z" fill="white"/>
<path d="M61.6756 19.0871L69.4189 16.2714L67.8351 11.6958C65.1953 12.5757 62.5556 13.4556 60.0918 14.5115L61.6756 19.0871Z" fill="white"/>
<path d="M125.907 14.6873C123.443 13.6314 120.804 12.7515 118.164 11.8716L116.58 16.2712L124.323 19.0869L125.907 14.6873Z" fill="white"/>
<path d="M38.2691 34.2217L44.6045 28.9422L41.6127 25.2466C39.325 27.0064 37.2132 28.7663 35.2773 30.5261L38.2691 34.2217Z" fill="white"/>
<path d="M164.448 129.428L160.225 136.644L164.272 138.931C165.856 136.644 167.088 134.18 168.496 131.716L164.448 129.428Z" fill="white"/>
<path d="M41.6127 160.753L44.6045 157.058L38.2691 151.778L35.2773 155.474C37.2132 157.234 39.325 158.994 41.6127 160.753Z" fill="white"/>
<path d="M168.672 54.1079C167.44 51.6441 166.032 49.1804 164.448 46.8926L160.4 49.1804L164.624 56.3957L168.672 54.1079Z" fill="white"/>
<path d="M172.72 102.855L171.312 110.95L176.064 111.83C176.592 109.19 177.12 106.375 177.472 103.559L172.72 102.855Z" fill="white"/>
<path d="M171.135 75.0496L172.543 83.1448L177.118 82.2649C176.766 79.4491 176.238 76.8094 175.71 73.9937L171.135 75.0496Z" fill="white"/>
<path d="M14.8625 110.95L13.2787 102.855L8.70312 103.735C9.05509 106.551 9.58304 109.19 10.111 112.006L14.8625 110.95Z" fill="white"/>
<path d="M13.2789 83.1451L14.6868 75.0498L9.93521 74.1699C9.40726 76.8097 8.87931 79.6254 8.52734 82.4411L13.2789 83.1451Z" fill="white"/>
<path d="M21.5496 56.5715L25.7732 49.3561L21.7256 47.0684C20.1417 49.3561 18.9098 51.8199 17.502 54.2837L21.5496 56.5715Z" fill="white"/>
<path d="M69.4189 169.729L61.6756 166.913L60.0918 171.313C62.5556 172.369 65.1953 173.248 67.8351 174.128L69.4189 169.729Z" fill="white"/>
<path d="M17.3262 131.892C18.5581 134.356 19.9659 136.82 21.5498 139.107L25.5974 136.82L21.5498 129.428L17.3262 131.892Z" fill="white"/>
<path d="M124.323 166.913L116.58 169.729L118.164 174.128C120.804 173.248 123.443 172.369 125.907 171.313L124.323 166.913Z" fill="white"/>
<path d="M144.386 25.2466L141.395 28.9422L147.73 34.2217L150.722 30.5261C148.786 28.7663 146.674 27.0064 144.386 25.2466Z" fill="white"/>
<path d="M97.2224 177.824V173.072H88.9512V177.824C90.359 177.824 91.7669 178 93.1748 178C94.4067 178 95.8145 178 97.2224 177.824Z" fill="white"/>
<path d="M147.73 151.778L141.395 157.058L144.386 160.753C146.674 158.994 148.786 157.234 150.722 155.474L147.73 151.778Z" fill="white"/>
</g>
<g clip-path="url(#clip0)">
<path d="M124.061 99.0777L93.0514 110.563L62.041 99.0777L93.0514 45.8252L124.061 99.0777Z" fill="white" fill-opacity="0.6"/>
<path d="M122.708 105.476L93.0522 140.175L63.3965 105.476L93.0522 116.459L122.708 105.476Z" fill="white" fill-opacity="0.6"/>
<path d="M93.0508 116.459L122.706 105.476L93.0508 140.175V116.459Z" fill="white"/>
<path d="M124.06 99.0777L93.0508 110.563V45.8252L124.06 99.0777Z" fill="white"/>
</g>
<defs>
<linearGradient id="paint0_linear" x1="93" y1="0" x2="93" y2="186" gradientUnits="userSpaceOnUse">
<stop stop-color="#FFE669"/>
<stop offset="0.461458" stop-color="#FF8C64"/>
<stop offset="1" stop-color="#FF6464"/>
</linearGradient>
<linearGradient id="paint1_linear" x1="93.185" y1="0.225544" x2="96.8196" y2="185.985" gradientUnits="userSpaceOnUse">
<stop stop-color="#15F1B2"/>
<stop offset="0.1325" stop-color="#20E2B8"/>
<stop offset="0.3879" stop-color="#3EBAC7"/>
<stop offset="0.737" stop-color="#6E7BDF"/>
<stop offset="1" stop-color="#9547F3"/>
</linearGradient>
<linearGradient id="paint2_linear" x1="93.1691" y1="8.20614" x2="96.491" y2="177.987" gradientUnits="userSpaceOnUse">
<stop stop-color="#15F1B2"/>
<stop offset="0.1325" stop-color="#20E2B8"/>
<stop offset="0.3879" stop-color="#3EBAC7"/>
<stop offset="0.737" stop-color="#6E7BDF"/>
<stop offset="1" stop-color="#9547F3"/>
</linearGradient>
<linearGradient id="paint3_linear" x1="96.8254" y1="28.4003" x2="99.5025" y2="161.797" gradientUnits="userSpaceOnUse">
<stop stop-color="#15F1B2"/>
<stop offset="0.1325" stop-color="#20E2B8"/>
<stop offset="0.3879" stop-color="#3EBAC7"/>
<stop offset="0.737" stop-color="#6E7BDF"/>
<stop offset="1" stop-color="#9547F3"/>
</linearGradient>
<clipPath id="clip0">
<rect width="94.35" height="94.35" fill="white" transform="translate(45.8242 45.8252)"/>
</clipPath>
</defs>
</svg>
