<svg width="14" height="20" viewBox="0 0 14 20" fill="none" xmlns="http://www.w3.org/2000/svg">
<path d="M0.690323 10.9595L11.9034 19.4268C12.0328 19.5245 12.1842 19.5817 12.3413 19.5922C12.4984 19.6027 12.6551 19.5662 12.7945 19.4865C12.9339 19.4069 13.0506 19.2871 13.1321 19.1403C13.2136 18.9935 13.2567 18.8251 13.2567 18.6535L13.2567 1.71879C13.2568 1.54706 13.2139 1.37859 13.1324 1.23161C13.051 1.08464 12.9343 0.964774 12.7949 0.885007C12.6554 0.805241 12.4987 0.768616 12.3415 0.779102C12.1844 0.789588 12.0329 0.846785 11.9034 0.944494L0.690323 9.41183C0.576086 9.49879 0.482792 9.61456 0.418371 9.74928C0.353951 9.88401 0.320311 10.0337 0.320311 10.1857C0.320311 10.3376 0.353951 10.4873 0.418371 10.622C0.482791 10.7567 0.576086 10.8725 0.690323 10.9595Z" fill="#808080"/>
</svg>
