<svg width="14" height="20" viewBox="0 0 14 20" fill="none" xmlns="http://www.w3.org/2000/svg">
<path d="M12.798 9.41162L1.58487 0.944278C1.45547 0.846616 1.30404 0.789424 1.14697 0.778901C0.989908 0.768376 0.833195 0.804919 0.693804 0.884574C0.554414 0.964227 0.437659 1.08396 0.356177 1.2308C0.274696 1.37764 0.231595 1.54599 0.231542 1.71763L0.231543 18.6523C0.23144 18.824 0.274425 18.9925 0.355843 19.1395C0.437261 19.2865 0.554006 19.4063 0.693424 19.4861C0.832843 19.5659 0.989618 19.6025 1.14676 19.592C1.3039 19.5815 1.45541 19.5243 1.58488 19.4266L12.798 10.9593C12.9122 10.8723 13.0055 10.7565 13.0699 10.6218C13.1343 10.4871 13.168 10.3374 13.168 10.1854C13.168 10.0335 13.1343 9.88379 13.0699 9.74907C13.0055 9.61434 12.9122 9.49858 12.798 9.41162Z" fill="white"/>
</svg>
